<svg width="140" height="45" viewBox="0 0 140 45" fill="none" xmlns="http://www.w3.org/2000/svg">
<g clip-path="url(#clip0_14_299)">
<path d="M22.5099 44.1C34.4444 44.1 44.1193 34.4294 44.1193 22.5C44.1193 10.5707 34.4444 0.900024 22.5099 0.900024C10.5753 0.900024 0.900391 10.5707 0.900391 22.5C0.900391 34.4294 10.5753 44.1 22.5099 44.1Z" fill="#171C2A"/>
<path d="M22.5099 45C18.0578 45 13.7058 43.6804 10.0041 41.2081C6.30233 38.7357 3.41719 35.2217 1.71347 31.1104C0.00975314 26.9991 -0.436017 22.4751 0.432531 18.1105C1.30108 13.7459 3.44493 9.73679 6.593 6.59011C9.74106 3.44343 13.7519 1.30051 18.1184 0.432341C22.4849 -0.435826 27.0109 0.00974886 31.124 1.71272C35.2372 3.41569 38.7527 6.29957 41.2261 9.99968C43.6995 13.6998 45.0197 18.0499 45.0197 22.5C45.0126 28.4652 42.6387 34.184 38.4188 38.402C34.199 42.62 28.4777 44.9929 22.5099 45V45ZM22.5099 1.80001C18.414 1.80001 14.4101 3.01404 11.0045 5.28859C7.59894 7.56313 4.9446 10.796 3.37718 14.5785C1.80976 18.3609 1.39965 22.523 2.19872 26.5384C2.99778 30.5538 4.97013 34.2422 7.86634 37.1371C10.7626 40.0321 14.4526 42.0036 18.4697 42.8023C22.4869 43.601 26.6508 43.1911 30.4349 41.6243C34.219 40.0576 37.4533 37.4044 39.7288 34.0003C42.0044 30.5962 43.2189 26.5941 43.2189 22.5C43.2118 17.0122 41.0277 11.7512 37.1455 7.87079C33.2633 3.99034 28.0001 1.80715 22.5099 1.80001V1.80001Z" fill="#00D991"/>
<path d="M17.1854 24.1877L17.055 24.3183C16.9882 24.3851 16.9883 24.4934 17.0551 24.5601L19.0143 26.5157C19.0811 26.5824 19.1894 26.5823 19.2562 26.5155L19.3866 26.385C19.4534 26.3181 19.4533 26.2099 19.3865 26.1431L17.4273 24.1876C17.3605 24.1208 17.2522 24.1209 17.1854 24.1877Z" fill="white"/>
<path d="M17.2283 23.1831L17.0978 23.3136C17.031 23.3804 17.031 23.4886 17.0978 23.5554L18.7149 25.1719C18.7817 25.2387 18.8901 25.2387 18.9569 25.1719L19.0874 25.0414C19.1542 24.9746 19.1542 24.8664 19.0874 24.7996L17.4702 23.1831C17.4034 23.1164 17.2951 23.1164 17.2283 23.1831Z" fill="white"/>
<path d="M28.2506 24.1928L28.1202 24.3234C28.0534 24.3902 28.0535 24.4985 28.1203 24.5652L30.0795 26.5208C30.1463 26.5875 30.2546 26.5874 30.3214 26.5206L30.4518 26.3901C30.5186 26.3232 30.5185 26.215 30.4517 26.1482L28.4925 24.1927C28.4257 24.1259 28.3173 24.126 28.2506 24.1928Z" fill="white"/>
<path d="M28.2798 23.184L28.1491 23.3144C28.0823 23.3811 28.0822 23.4894 28.1489 23.5562L29.7647 25.1741C29.8314 25.2409 29.9397 25.241 30.0066 25.1743L30.1372 25.0439C30.2041 24.9772 30.2042 24.8689 30.1375 24.8021L28.5217 23.1842C28.455 23.1174 28.3466 23.1173 28.2798 23.184Z" fill="white"/>
<path fill-rule="evenodd" clip-rule="evenodd" d="M32.8643 25.4025H32.4141C32.2864 24.3371 31.7755 23.3544 30.9768 22.6375C30.178 21.9206 29.1458 21.5183 28.0723 21.5057C26.9989 21.493 25.9574 21.8708 25.142 22.5687C24.3265 23.2665 23.7926 24.2369 23.6398 25.299C23.4012 25.353 22.4692 25.4025 22.4692 25.4025C22.4692 25.4025 21.5688 25.3575 21.3483 25.308C21.1964 24.2458 20.6635 23.275 19.8488 22.5764C19.034 21.8778 17.993 21.499 16.9196 21.5105C15.8463 21.5221 14.8137 21.9232 14.0142 22.6392C13.2147 23.3552 12.7028 24.3373 12.5739 25.4025H12.0697C11.9789 25.4025 11.8919 25.4385 11.8278 25.5027C11.7636 25.5668 11.7275 25.6538 11.7275 25.7445V26.1C11.7287 26.1892 11.7647 26.2743 11.8277 26.3374C11.8908 26.4004 11.976 26.4363 12.0652 26.4375H12.5514C12.678 27.5031 13.1877 28.4865 13.9858 29.2043C14.7838 29.9221 15.8157 30.3255 16.8892 30.3392C17.9627 30.353 19.0046 29.9762 19.8208 29.2791C20.637 28.582 21.1719 27.6121 21.3257 26.55C21.5734 26.5005 22.4467 26.451 22.4467 26.451C22.4467 26.451 23.3741 26.5095 23.6172 26.559C23.7495 27.6401 24.2762 28.6345 25.0963 29.3515C25.9165 30.0686 26.9725 30.4581 28.062 30.4452C29.1516 30.4324 30.1981 30.0183 31.0012 29.2821C31.8042 28.5459 32.3073 27.5394 32.4141 26.4555H32.8643C32.9535 26.4555 33.0392 26.4207 33.1031 26.3585C33.167 26.2963 33.2041 26.2116 33.2064 26.1225V26.1225V25.749C33.2064 25.6583 33.1704 25.5713 33.1062 25.5072C33.0421 25.443 32.955 25.407 32.8643 25.407V25.4025ZM16.9453 29.2995C16.2784 29.2995 15.6265 29.1018 15.072 28.7315C14.5174 28.3611 14.0852 27.8347 13.83 27.2188C13.5748 26.603 13.508 25.9253 13.6381 25.2715C13.7682 24.6176 14.0894 24.0171 14.561 23.5457C15.0326 23.0743 15.6334 22.7533 16.2875 22.6233C16.9416 22.4932 17.6196 22.56 18.2357 22.8151C18.8519 23.0702 19.3785 23.5022 19.749 24.0565C20.1195 24.6107 20.3173 25.2624 20.3173 25.929C20.3173 26.8229 19.962 27.6802 19.3297 28.3123C18.6973 28.9444 17.8396 29.2995 16.9453 29.2995ZM27.9977 29.2995C27.3307 29.2995 26.6788 29.1018 26.1243 28.7315C25.5698 28.3611 25.1376 27.8347 24.8824 27.2188C24.6271 26.603 24.5604 25.9253 24.6905 25.2715C24.8206 24.6176 25.1417 24.0171 25.6133 23.5457C26.0849 23.0743 26.6857 22.7533 27.3398 22.6233C27.9939 22.4932 28.6719 22.56 29.2881 22.8151C29.9042 23.0702 30.4308 23.5022 30.8014 24.0565C31.1719 24.6107 31.3696 25.2624 31.3696 25.929V25.929C31.3696 26.8229 31.0144 27.6802 30.382 28.3123C29.7496 28.9444 28.892 29.2995 27.9977 29.2995Z" fill="white"/>
<path d="M36.7271 24.129V16.2585H33.9584C34.1203 15.3934 34.2241 14.5185 34.269 13.6395L32.6393 14.85C33.5397 13.8105 32.6393 8.96402 32.6393 8.96402C32.6393 8.96402 31.4508 11.295 24.0406 10.701C16.6303 10.107 15.5904 13.05 15.5904 13.05C14.69 12.15 15.5904 10.6785 15.5904 10.6785C15.3219 10.8025 15.0805 10.9782 14.8799 11.1955C14.6794 11.4128 14.5237 11.6675 14.4216 11.945C14.3196 12.2225 14.2733 12.5173 14.2854 12.8127C14.2974 13.1081 14.3676 13.3983 14.4919 13.6665L14.5549 13.788H12.1554L13.8121 14.85C13.29 15.1963 12.8888 15.6964 12.6641 16.281H8.20714V24.129L6.58643 25.749L8.20714 27.369L8.65733 35.2395H12.8667L12.4165 26.91C12.4209 26.8825 12.4197 26.8543 12.413 26.8272C12.4063 26.8001 12.3941 26.7747 12.3773 26.7524C12.3605 26.7301 12.3393 26.7115 12.3151 26.6976C12.2909 26.6837 12.2641 26.6748 12.2364 26.6715C12.1816 26.6637 12.1259 26.6778 12.0812 26.7106C12.0366 26.7434 12.0067 26.7924 11.9978 26.847C11.9933 26.8678 11.9933 26.8893 11.9978 26.91V33.3H10.1115V26.847L9.00398 25.749L10.107 24.651V18.198H12.2049C12.1553 18.6854 12.1463 19.1761 12.1779 19.665H13.659C13.7414 18.7662 14.171 17.9349 14.8565 17.3475C17.3777 14.2335 28.0518 16.0515 28.0518 16.0515L29.2358 14.3055L28.7856 16.0515C31.2977 16.65 31.5138 19.611 31.5138 19.611H32.6393C32.9777 19.1864 33.2439 18.709 33.4272 18.198H34.8228V24.651L35.9258 25.749L34.8228 26.847V33.3H32.5178L32.968 35.2395H37.1773L36.7271 27.369L38.3478 25.749L36.7271 24.129Z" fill="white"/>
<path d="M58.2194 17.001H61.8435V18.747H55.991V7.75351H58.1969L58.2194 17.001Z" fill="white"/>
<path d="M71.2977 15.048H64.9139C64.9365 15.608 65.1734 16.138 65.5757 16.5285C65.9667 16.8865 66.4817 17.0785 67.0118 17.064C67.3758 17.0852 67.7377 16.9955 68.0496 16.8067C68.3615 16.6178 68.6087 16.3388 68.7585 16.0065H71.1311C70.8858 16.8356 70.3769 17.5623 69.6814 18.0765C68.9293 18.6317 68.014 18.9213 67.0793 18.9C66.2929 18.9106 65.5172 18.7168 64.8283 18.3375C64.1667 17.9717 63.6244 17.4234 63.2661 16.758C62.8726 16.0348 62.6696 15.2233 62.6764 14.4C62.659 13.5727 62.8494 12.7543 63.2301 12.0195C63.5792 11.3545 64.1162 10.8068 64.7743 10.4445C65.482 10.0652 66.2766 9.87753 67.0793 9.9C67.8632 9.8819 68.6386 10.0663 69.3303 10.4355C69.9775 10.781 70.5095 11.3082 70.861 11.952C71.2298 12.6439 71.4172 13.418 71.4057 14.202C71.3921 14.4864 71.3559 14.7693 71.2977 15.048V15.048ZM69.0737 13.5675C69.0763 13.3115 69.0229 13.0579 68.9171 12.8247C68.8114 12.5915 68.6558 12.3842 68.4614 12.2175C68.0524 11.8707 67.53 11.6865 66.9938 11.7C66.4887 11.6863 65.9969 11.863 65.6162 12.195C65.2269 12.5565 64.9834 13.0479 64.9319 13.5765L69.0737 13.5675Z" fill="white"/>
<path d="M72.932 12.006C73.2522 11.3573 73.7482 10.8116 74.3636 10.431C74.9739 10.0615 75.676 9.87125 76.3895 9.88202C76.9833 9.86952 77.571 10.004 78.1002 10.2735C78.5605 10.5124 78.9607 10.8524 79.2708 11.268V10.0215H81.4857V18.747H79.2618V17.4735C78.9582 17.8997 78.5568 18.2469 78.0912 18.486C77.5578 18.7631 76.9635 18.9024 76.3625 18.891C75.6527 18.8979 74.9558 18.7011 74.3546 18.324C73.7425 17.9304 73.2503 17.3763 72.932 16.722C72.568 15.9869 72.3858 15.1751 72.4008 14.355C72.3868 13.5408 72.569 12.7351 72.932 12.006V12.006ZM78.9556 13.005C78.764 12.6298 78.4687 12.3174 78.1048 12.105C77.7558 11.9035 77.3597 11.7979 76.9567 11.799C76.5514 11.7957 76.153 11.9035 75.8045 12.1105C75.4561 12.3176 75.1711 12.616 74.9804 12.9735C74.7576 13.388 74.646 13.8531 74.6562 14.3235C74.6459 14.8025 74.7575 15.2763 74.9804 15.7005C75.1761 16.0728 75.4705 16.3841 75.8313 16.6005C76.1699 16.808 76.5596 16.917 76.9567 16.9155C77.3597 16.9166 77.7558 16.811 78.1048 16.6095C78.4687 16.3971 78.764 16.0848 78.9556 15.7095C79.1765 15.2849 79.285 14.8109 79.2708 14.3325C79.274 13.8706 79.1643 13.4149 78.9511 13.005H78.9556Z" fill="white"/>
<path d="M86.9647 10.2915C87.4422 10.0221 87.9831 9.88532 88.5314 9.89552V12.213H87.9506C87.3858 12.1723 86.8264 12.3458 86.3839 12.699C86.0283 13.023 85.8572 13.599 85.8572 14.4V18.747H83.6467V10.0215H85.8572V11.3715C86.1271 10.9222 86.5086 10.5501 86.9647 10.2915V10.2915Z" fill="white"/>
<path d="M97.3732 10.881C97.7073 11.2529 97.9642 11.6875 98.1288 12.1595C98.2935 12.6316 98.3625 13.1316 98.3321 13.6305V18.747H96.1261V13.95C96.1663 13.3707 95.9807 12.7983 95.6084 12.3525C95.4257 12.1635 95.2046 12.0158 94.96 11.9196C94.7153 11.8233 94.4528 11.7807 94.1903 11.7945C93.9245 11.7761 93.6578 11.8143 93.4079 11.9067C93.158 11.999 92.9306 12.1433 92.7406 12.33C92.5514 12.5525 92.4079 12.8101 92.3183 13.0881C92.2287 13.3661 92.1947 13.6589 92.2184 13.95V18.747H90.0125V10.0215H92.2184V11.1105C92.5182 10.7251 92.9056 10.4166 93.3484 10.2105C93.819 9.99133 94.3329 9.88061 94.8521 9.88653C95.3184 9.86812 95.7834 9.94705 96.2174 10.1183C96.6515 10.2895 97.0451 10.5493 97.3732 10.881Z" fill="white"/>
<path d="M68.1103 27.1215L65.5577 35.847H63.1806L61.5869 29.754L59.9977 35.847H57.6252L55.0591 27.1215H57.3101L58.8137 33.75L60.4885 27.1035H62.8205L64.4547 33.75L66.0034 27.1215H68.1103Z" fill="white"/>
<path d="M69.461 25.713C69.3383 25.5928 69.2407 25.4492 69.1741 25.2908C69.1075 25.1324 69.0732 24.9623 69.0732 24.7905C69.0732 24.6187 69.1075 24.4486 69.1741 24.2902C69.2407 24.1318 69.3383 23.9883 69.461 23.868C69.7275 23.6305 70.072 23.4992 70.429 23.4992C70.786 23.4992 71.1305 23.6305 71.3969 23.868C71.5197 23.9883 71.6172 24.1318 71.6838 24.2902C71.7504 24.4486 71.7847 24.6187 71.7847 24.7905C71.7847 24.9623 71.7504 25.1324 71.6838 25.2908C71.6172 25.4492 71.5197 25.5928 71.3969 25.713C71.1305 25.9505 70.786 26.0818 70.429 26.0818C70.072 26.0818 69.7275 25.9505 69.461 25.713V25.713ZM71.5185 27.1215V35.847H69.3305V27.1215H71.5185Z" fill="white"/>
<path d="M76.2588 28.9305V33.1515C76.2482 33.2668 76.2615 33.3831 76.2979 33.4931C76.3343 33.603 76.393 33.7043 76.4704 33.7905C76.677 33.9412 76.9315 34.0116 77.1862 33.9885H78.2127V35.847H76.826C74.9682 35.847 74.0378 34.947 74.0348 33.147V28.9305H72.9949V27.1305H74.0348V24.966H76.2588V27.1215H78.2127V28.9215L76.2588 28.9305Z" fill="white"/>
<path d="M86.4829 27.45C87.0052 27.7442 87.4259 28.1898 87.6895 28.728C87.999 29.3575 88.1533 30.0518 88.1397 30.753V35.847H85.9337V31.05C85.9738 30.4707 85.7883 29.8983 85.416 29.4525C85.2333 29.2635 85.0122 29.1158 84.7675 29.0196C84.5229 28.9233 84.2604 28.8807 83.9978 28.8945C83.7319 28.8803 83.4659 28.9227 83.2176 29.0189C82.9693 29.1151 82.7442 29.2629 82.5572 29.4525C82.1726 29.8927 81.9769 30.4666 82.0125 31.05V35.847H79.802V24.192H82.0125V28.2105C82.3051 27.818 82.6944 27.508 83.1425 27.3105C83.6381 27.0899 84.1757 26.9793 84.7182 26.9865C85.3368 26.9846 85.9452 27.1444 86.4829 27.45V27.45Z" fill="white"/>
<path d="M95.694 35.55C95.1127 35.3133 94.608 34.9209 94.2354 34.416C93.8732 33.9045 93.681 33.2921 93.6861 32.6655H96.0497C96.0521 32.8695 96.0961 33.0708 96.1789 33.2573C96.2617 33.4437 96.3817 33.6114 96.5314 33.75C96.8618 34.0299 97.2875 34.1717 97.7199 34.146C98.155 34.1736 98.5852 34.0425 98.9309 33.777C99.0757 33.6615 99.1917 33.5141 99.2699 33.3462C99.348 33.1783 99.3861 32.9946 99.3811 32.8095C99.3925 32.5123 99.2857 32.2227 99.084 32.004C98.8729 31.7879 98.6181 31.6191 98.3367 31.509C97.9313 31.3527 97.518 31.2175 97.0986 31.104C96.5033 30.9405 95.9209 30.7329 95.3564 30.483C94.9029 30.2736 94.5085 29.9551 94.2084 29.556C93.8622 29.0753 93.6892 28.4916 93.7176 27.9C93.7034 27.2968 93.8729 26.7036 94.2039 26.199C94.5439 25.7031 95.021 25.3169 95.577 25.0875C96.2151 24.8201 96.902 24.6883 97.5938 24.7005C98.5826 24.6544 99.5576 24.9464 100.358 25.5285C100.712 25.8034 101 26.1527 101.203 26.5517C101.406 26.9507 101.519 27.3896 101.533 27.837H99.1065C99.0988 27.6548 99.0518 27.4764 98.9686 27.3141C98.8855 27.1517 98.7682 27.0093 98.6248 26.8965C98.2851 26.6362 97.8637 26.5054 97.4363 26.5275C97.0634 26.5087 96.6967 26.6272 96.4053 26.8605C96.2725 26.9806 96.1686 27.1292 96.1015 27.2953C96.0345 27.4613 96.0059 27.6404 96.0182 27.819C96.0137 27.9548 96.0374 28.0901 96.0878 28.2163C96.1381 28.3426 96.214 28.457 96.3108 28.5525C96.5207 28.7483 96.7669 28.9012 97.0356 29.0025C97.4348 29.1628 97.842 29.3025 98.2556 29.421C98.853 29.5866 99.4369 29.7972 100.002 30.051C100.464 30.2639 100.865 30.5888 101.168 30.996C101.515 31.4746 101.688 32.0572 101.659 32.6475C101.665 33.2248 101.509 33.7921 101.209 34.2855C100.883 34.8078 100.414 35.2261 99.8583 35.4915C99.2042 35.8045 98.4854 35.9587 97.7604 35.9415C97.0523 35.9514 96.3494 35.8183 95.694 35.55V35.55Z" fill="white"/>
<path d="M111.806 27.1215V35.847H109.582V34.7445C109.293 35.1313 108.913 35.4405 108.475 35.6445C108.009 35.8623 107.5 35.973 106.985 35.9685C106.356 35.9731 105.737 35.8183 105.184 35.5185C104.655 35.2261 104.226 34.7827 103.951 34.245C103.636 33.6237 103.481 32.934 103.5 32.238V27.1215H105.706V31.95C105.666 32.5293 105.852 33.1018 106.224 33.5475C106.407 33.7366 106.628 33.8842 106.872 33.9805C107.117 34.0767 107.38 34.1194 107.642 34.1055C107.908 34.1205 108.173 34.0785 108.421 33.9822C108.668 33.886 108.893 33.7377 109.078 33.5475C109.446 33.0997 109.626 32.5275 109.582 31.95V27.1215H111.806Z" fill="white"/>
<path d="M127.406 27.981C127.746 28.3497 128.009 28.7832 128.177 29.2557C128.346 29.7282 128.417 30.2298 128.387 30.7305V35.847H126.181V31.05C126.222 30.4802 126.036 29.9175 125.664 29.484C125.482 29.2959 125.262 29.1482 125.019 29.0505C124.777 28.9528 124.516 28.9073 124.254 28.917C123.992 28.9036 123.729 28.9451 123.483 29.0388C123.238 29.1326 123.014 29.2765 122.827 29.4615C122.638 29.6778 122.494 29.9298 122.403 30.2026C122.313 30.4754 122.278 30.7635 122.301 31.05V35.847H120.095V31.05C120.133 30.4797 119.946 29.9171 119.572 29.484C119.388 29.2988 119.166 29.1546 118.921 29.0608C118.677 28.967 118.416 28.9257 118.154 28.9395C117.889 28.9253 117.625 28.9663 117.377 29.0601C117.129 29.1538 116.903 29.2982 116.714 29.484C116.527 29.6976 116.385 29.9459 116.294 30.2146C116.204 30.4833 116.167 30.7672 116.187 31.05V35.847H113.981V27.1215H116.187V28.179C116.477 27.806 116.852 27.5081 117.281 27.3105C117.742 27.0964 118.245 26.9888 118.753 26.9955C119.39 26.9897 120.019 27.1445 120.581 27.4455C121.11 27.7258 121.544 28.1564 121.828 28.683C122.114 28.1624 122.544 27.7345 123.066 27.45C123.755 27.0771 124.543 26.9279 125.321 27.023C126.098 27.1182 126.827 27.453 127.406 27.981V27.981Z" fill="white"/>
<path d="M130.643 25.713C130.52 25.5928 130.422 25.4492 130.356 25.2908C130.289 25.1324 130.255 24.9623 130.255 24.7905C130.255 24.6187 130.289 24.4486 130.356 24.2902C130.422 24.1318 130.52 23.9883 130.643 23.868C130.91 23.6302 131.255 23.4987 131.613 23.4987C131.971 23.4987 132.316 23.6302 132.583 23.868C132.828 24.1127 132.965 24.4445 132.965 24.7905C132.965 25.1365 132.828 25.4683 132.583 25.713C132.316 25.9509 131.971 26.0823 131.613 26.0823C131.255 26.0823 130.91 25.9509 130.643 25.713V25.713ZM132.7 27.1215V35.847H130.494V27.1215H132.7Z" fill="white"/>
<path d="M137.441 28.9305V33.1515C137.429 33.2672 137.443 33.384 137.48 33.4941C137.517 33.6043 137.578 33.7053 137.657 33.7905C137.863 33.9423 138.118 34.0128 138.372 33.9885H139.394V35.847H138.008C136.15 35.847 135.221 34.947 135.221 33.147V28.9305H134.181V27.1305H135.221V24.966H137.441V27.1215H139.394V28.9215L137.441 28.9305Z" fill="white"/>
</g>
<defs>
<clipPath id="clip0_14_299">
<rect width="139.395" height="45" fill="white"/>
</clipPath>
</defs>
</svg>
