<svg width="45" height="45" viewBox="0 0 513 512" fill="none" xmlns="http://www.w3.org/2000/svg">
<path d="M256.112 501.76C391.901 501.76 501.98 391.73 501.98 256C501.98 120.271 391.901 10.2401 256.112 10.2401C120.323 10.2401 10.2446 120.271 10.2446 256C10.2446 391.73 120.323 501.76 256.112 501.76Z" fill="#171C2A"/>
<path d="M256.112 512C205.458 512 155.941 496.986 113.824 468.856C71.7066 440.727 38.88 400.745 19.4955 353.967C0.110969 307.189 -4.96091 255.716 4.92124 206.057C14.8034 156.398 39.1957 110.783 75.0136 74.9808C110.832 39.1785 156.466 14.7969 206.147 4.91908C255.828 -4.95873 307.324 0.11092 354.122 19.487C400.921 38.863 440.92 71.6752 469.062 113.774C497.204 155.873 512.224 205.368 512.224 256C512.143 323.871 485.134 388.938 437.121 436.93C389.108 484.921 324.012 511.919 256.112 512ZM256.112 20.4801C209.51 20.4801 163.955 34.2931 125.207 60.1724C86.459 86.0517 56.2586 122.835 38.4248 165.87C20.5911 208.906 15.9249 256.261 25.0165 301.948C34.1081 347.634 56.549 389.6 89.5015 422.538C122.454 455.476 164.438 477.907 210.144 486.995C255.851 496.082 303.227 491.418 346.281 473.592C389.336 455.766 426.135 425.579 452.026 386.848C477.916 348.117 491.735 302.582 491.735 256C491.654 193.561 466.803 133.703 422.633 89.5521C378.463 45.4011 318.578 20.5614 256.112 20.4801Z" fill="#00D991"/>
<path d="M195.531 275.203L194.047 276.688C193.288 277.448 193.289 278.68 194.049 279.44L216.34 301.689C217.101 302.449 218.333 302.448 219.093 301.688L220.577 300.202C221.336 299.442 221.335 298.21 220.575 297.451L198.284 275.201C197.523 274.442 196.291 274.442 195.531 275.203Z" fill="white"/>
<path d="M196.019 263.773L194.534 265.257C193.773 266.017 193.773 267.249 194.534 268.008L212.933 286.4C213.693 287.16 214.926 287.16 215.686 286.4L217.171 284.916C217.931 284.156 217.931 282.924 217.171 282.164L198.771 263.773C198.011 263.013 196.779 263.013 196.019 263.773Z" fill="white"/>
<path d="M321.428 275.261L319.944 276.746C319.185 277.506 319.185 278.738 319.946 279.498L342.237 301.747C342.997 302.507 344.23 302.506 344.99 301.746L346.473 300.26C347.233 299.5 347.232 298.268 346.472 297.509L324.181 275.259C323.42 274.5 322.188 274.5 321.428 275.261Z" fill="white"/>
<path d="M321.76 263.783L320.274 265.266C319.513 266.025 319.512 267.257 320.272 268.017L338.655 286.425C339.415 287.185 340.647 287.186 341.408 286.427L342.894 284.944C343.655 284.185 343.656 282.953 342.897 282.193L324.513 263.785C323.754 263.024 322.521 263.023 321.76 263.783Z" fill="white"/>
<path fill-rule="evenodd" clip-rule="evenodd" d="M373.924 289.024H368.802C367.348 276.902 361.536 265.721 352.448 257.564C343.36 249.408 331.615 244.831 319.402 244.687C307.189 244.543 295.339 248.841 286.061 256.781C276.783 264.721 270.708 275.762 268.969 287.847C266.254 288.461 255.651 289.024 255.651 289.024C255.651 289.024 245.407 288.512 242.897 287.949C241.169 275.864 235.106 264.818 225.836 256.869C216.566 248.92 204.722 244.61 192.509 244.742C180.296 244.873 168.548 249.437 159.451 257.584C150.355 265.731 144.531 276.904 143.064 289.024H137.327C136.295 289.024 135.305 289.434 134.575 290.164C133.845 290.894 133.435 291.883 133.435 292.915V296.96C133.448 297.974 133.857 298.943 134.574 299.661C135.292 300.378 136.261 300.787 137.276 300.8H142.808C144.248 312.925 150.048 324.113 159.128 332.28C168.208 340.447 179.949 345.036 192.163 345.193C204.377 345.349 216.232 341.063 225.518 333.131C234.805 325.199 240.89 314.164 242.641 302.08C245.458 301.517 255.395 300.954 255.395 300.954C255.395 300.954 265.947 301.619 268.713 302.183C270.218 314.483 276.21 325.796 285.542 333.955C294.873 342.114 306.888 346.545 319.285 346.399C331.682 346.253 343.589 341.541 352.726 333.165C361.863 324.789 367.587 313.338 368.802 301.005H373.924C374.939 301.005 375.914 300.609 376.641 299.902C377.368 299.194 377.79 298.23 377.817 297.216V292.967C377.817 291.934 377.407 290.945 376.677 290.215C375.946 289.485 374.956 289.075 373.924 289.075V289.024ZM192.801 333.363C185.213 333.363 177.796 331.114 171.487 326.9C165.177 322.687 160.26 316.697 157.356 309.69C154.452 302.683 153.693 294.972 155.173 287.533C156.653 280.094 160.307 273.261 165.673 267.898C171.038 262.535 177.874 258.882 185.317 257.403C192.759 255.923 200.473 256.682 207.483 259.585C214.494 262.487 220.486 267.403 224.701 273.709C228.917 280.015 231.167 287.43 231.167 295.014C231.167 305.185 227.125 314.939 219.93 322.131C212.735 329.323 202.977 333.363 192.801 333.363ZM318.552 333.363C310.964 333.363 303.547 331.114 297.238 326.9C290.928 322.687 286.011 316.697 283.107 309.69C280.203 302.683 279.444 294.972 280.924 287.533C282.404 280.094 286.058 273.261 291.424 267.898C296.789 262.535 303.625 258.882 311.068 257.403C318.51 255.923 326.224 256.682 333.234 259.585C340.245 262.487 346.237 267.403 350.452 273.709C354.668 280.015 356.918 287.43 356.918 295.014C356.918 305.185 352.876 314.939 345.681 322.131C338.486 329.323 328.728 333.363 318.552 333.363Z" fill="white"/>
<path d="M417.873 274.534V184.986H386.371C388.213 175.143 389.394 165.188 389.905 155.187L371.363 168.96C381.607 157.133 371.363 101.991 371.363 101.991C371.363 101.991 357.84 128.512 273.528 121.754C189.216 114.995 177.383 148.48 177.383 148.48C167.139 138.24 177.383 121.498 177.383 121.498C174.328 122.909 171.582 124.907 169.3 127.38C167.018 129.852 165.247 132.75 164.086 135.907C162.925 139.064 162.398 142.419 162.535 145.78C162.673 149.141 163.471 152.442 164.885 155.495L165.602 156.877H138.301L157.15 168.96C151.211 172.9 146.645 178.59 144.089 185.242H93.3785V274.534L74.9385 292.967L93.3785 311.399L98.5008 400.947H146.394L141.272 306.176C141.322 305.863 141.309 305.542 141.232 305.234C141.156 304.926 141.017 304.636 140.826 304.383C140.635 304.129 140.394 303.917 140.118 303.759C139.843 303.601 139.538 303.5 139.223 303.463C138.599 303.374 137.965 303.533 137.457 303.907C136.95 304.28 136.609 304.838 136.508 305.459C136.457 305.695 136.457 305.94 136.508 306.176V378.88H115.046V305.459L102.445 292.967L114.994 280.474V207.053H138.864C138.3 212.599 138.198 218.181 138.557 223.744H155.409C156.347 213.518 161.234 204.059 169.034 197.376C197.719 161.946 319.167 182.631 319.167 182.631L332.638 162.765L327.516 182.631C356.098 189.44 358.557 223.13 358.557 223.13H371.363C375.212 218.298 378.241 212.867 380.327 207.053H396.206V280.474L408.755 292.967L396.206 305.459V378.88H369.98L375.102 400.947H422.995L417.873 311.399L436.313 292.967L417.873 274.534Z" fill="white"/>
</svg>
