<svg width="269" height="46" viewBox="0 0 269 46" fill="none" xmlns="http://www.w3.org/2000/svg">
<path d="M22.272 44.3719C34.0805 44.3719 43.6532 34.8034 43.6532 23.0001C43.6532 11.1968 34.0805 1.6283 22.272 1.6283C10.4635 1.6283 0.890869 11.1968 0.890869 23.0001C0.890869 34.8034 10.4635 44.3719 22.272 44.3719Z" fill="#171C2A"/>
<path d="M22.272 45.2623C17.867 45.2623 13.561 43.9566 9.89836 41.5104C6.23575 39.0642 3.38108 35.5873 1.69537 31.5194C0.00965009 27.4515 -0.43141 22.9753 0.427961 18.6569C1.28733 14.3384 3.40854 10.3716 6.52334 7.25821C9.63813 4.14478 13.6066 2.0245 17.927 1.16551C22.2473 0.306511 26.7255 0.747378 30.7952 2.43236C34.8649 4.11734 38.3433 6.97075 40.7906 10.6318C43.2378 14.2928 44.5441 18.597 44.5441 23C44.537 28.9022 42.1882 34.5606 38.0129 38.734C33.8376 42.9075 28.1768 45.2552 22.272 45.2623ZM22.272 2.51872C18.2194 2.51872 14.2579 3.71993 10.8883 5.97044C7.51865 8.22096 4.89236 11.4197 3.3415 15.1622C1.79064 18.9046 1.38487 23.0227 2.17549 26.9957C2.96611 30.9687 4.91762 34.6181 7.78323 37.4825C10.6488 40.3468 14.2999 42.2975 18.2746 43.0878C22.2493 43.878 26.3692 43.4724 30.1133 41.9223C33.8574 40.3721 37.0576 37.7469 39.3091 34.3788C41.5606 31.0107 42.7623 27.0508 42.7623 23C42.7552 17.5702 40.5942 12.3648 36.753 8.52536C32.9119 4.68591 27.7042 2.52579 22.272 2.51872Z" fill="#00D991"/>
<path d="M17.0038 24.67L16.8747 24.7992C16.8087 24.8653 16.8088 24.9724 16.8749 25.0384L18.8133 26.9733C18.8795 27.0394 18.9867 27.0393 19.0527 26.9732L19.1818 26.844C19.2478 26.7779 19.2478 26.6707 19.1816 26.6047L17.2432 24.6698C17.177 24.6038 17.0698 24.6039 17.0038 24.67Z" fill="white"/>
<path d="M17.0462 23.676L16.9171 23.8051C16.851 23.8711 16.8509 23.9783 16.9171 24.0444L18.5171 25.6437C18.5832 25.7098 18.6904 25.7098 18.7565 25.6437L18.8856 25.5146C18.9517 25.4486 18.9517 25.3414 18.8856 25.2754L17.2856 23.676C17.2195 23.6099 17.1123 23.6099 17.0462 23.676Z" fill="white"/>
<path d="M27.952 24.6751L27.823 24.8042C27.7569 24.8704 27.757 24.9775 27.8231 25.0435L29.7616 26.9784C29.8277 27.0444 29.9349 27.0443 30.001 26.9782L30.13 26.8491C30.1961 26.7829 30.196 26.6758 30.1298 26.6098L28.1914 24.6749C28.1253 24.6089 28.0181 24.6089 27.952 24.6751Z" fill="white"/>
<path d="M27.981 23.6769L27.8517 23.8059C27.7856 23.8719 27.7855 23.979 27.8515 24.0451L29.4502 25.6459C29.5162 25.712 29.6234 25.7121 29.6896 25.6461L29.8188 25.5171C29.885 25.4511 29.8851 25.344 29.819 25.2779L28.2204 23.6771C28.1543 23.611 28.0471 23.6109 27.981 23.6769Z" fill="white"/>
<path fill-rule="evenodd" clip-rule="evenodd" d="M32.5172 25.8719H32.0717C31.9454 24.8178 31.4399 23.8455 30.6496 23.1361C29.8593 22.4268 28.8379 22.0288 27.7758 22.0163C26.7137 22.0037 25.6833 22.3775 24.8765 23.068C24.0696 23.7585 23.5414 24.7186 23.3901 25.7695C23.154 25.823 22.232 25.8719 22.232 25.8719C22.232 25.8719 21.3411 25.8274 21.1228 25.7784C20.9726 24.7275 20.4453 23.7669 19.6392 23.0757C18.833 22.3844 17.803 22.0096 16.741 22.0211C15.679 22.0325 14.6573 22.4294 13.8662 23.1378C13.0752 23.8463 12.5687 24.818 12.4412 25.8719H11.9423C11.8525 25.8719 11.7664 25.9076 11.7029 25.971C11.6394 26.0345 11.6038 26.1206 11.6038 26.2103V26.5621C11.6049 26.6503 11.6405 26.7345 11.7029 26.7969C11.7653 26.8593 11.8496 26.8948 11.9378 26.896H12.4189C12.5441 27.9504 13.0485 28.9233 13.8381 29.6335C14.6278 30.3438 15.6488 30.7429 16.7109 30.7565C17.7731 30.7701 18.804 30.3973 19.6115 29.7075C20.4191 29.0178 20.9483 28.0581 21.1005 27.0073C21.3455 26.9583 22.2097 26.9093 22.2097 26.9093C22.2097 26.9093 23.1273 26.9672 23.3678 27.0162C23.4987 28.0859 24.0198 29.0697 24.8313 29.7792C25.6428 30.4887 26.6876 30.8741 27.7657 30.8614C28.8437 30.8487 29.8792 30.4389 30.6738 29.7105C31.4683 28.9821 31.9661 27.9863 32.0717 26.9138H32.5172C32.6055 26.9138 32.6902 26.8794 32.7535 26.8179C32.8167 26.7563 32.8534 26.6725 32.8557 26.5843V26.2148C32.8557 26.125 32.8201 26.0389 32.7566 25.9755C32.6931 25.912 32.607 25.8764 32.5172 25.8764V25.8719ZM16.7664 29.7278C16.1065 29.7278 15.4615 29.5322 14.9128 29.1657C14.3642 28.7993 13.9366 28.2784 13.684 27.6691C13.4315 27.0597 13.3654 26.3892 13.4942 25.7423C13.6229 25.0954 13.9407 24.5011 14.4073 24.0347C14.8739 23.5683 15.4683 23.2507 16.1155 23.1221C16.7627 22.9934 17.4335 23.0594 18.0432 23.3118C18.6528 23.5642 19.1739 23.9917 19.5405 24.5401C19.9071 25.0885 20.1028 25.7333 20.1028 26.3929C20.1028 27.2773 19.7513 28.1256 19.1256 28.751C18.4999 29.3764 17.6513 29.7278 16.7664 29.7278ZM27.702 29.7278C27.0421 29.7278 26.3971 29.5322 25.8484 29.1657C25.2997 28.7993 24.8721 28.2784 24.6196 27.6691C24.3671 27.0597 24.301 26.3892 24.4297 25.7423C24.5585 25.0954 24.8762 24.5011 25.3428 24.0347C25.8094 23.5683 26.4039 23.2507 27.0511 23.1221C27.6983 22.9934 28.3691 23.0594 28.9787 23.3118C29.5884 23.5642 30.1094 23.9917 30.4761 24.5401C30.8427 25.0885 31.0383 25.7333 31.0383 26.3929C31.0383 27.2773 30.6868 28.1256 30.0611 28.751C29.4354 29.3764 28.5868 29.7278 27.702 29.7278Z" fill="white"/>
<path d="M36.3391 24.6119V16.8245H33.5996C33.7598 15.9686 33.8625 15.1029 33.907 14.2332L32.2945 15.4309C33.1854 14.4024 32.2945 9.60712 32.2945 9.60712C32.2945 9.60712 31.1185 11.9135 23.7866 11.3258C16.4546 10.738 15.4257 13.6499 15.4257 13.6499C14.5348 12.7595 15.4257 11.3035 15.4257 11.3035C15.16 11.4262 14.9211 11.6 14.7227 11.815C14.5243 12.03 14.3702 12.282 14.2693 12.5566C14.1683 12.8311 14.1225 13.1229 14.1345 13.4152C14.1464 13.7074 14.2158 13.9945 14.3388 14.2599L14.4011 14.3801H12.0269L13.6662 15.4309C13.1496 15.7735 12.7526 16.2684 12.5303 16.8468H8.12043V24.6119L6.51685 26.2148L8.12043 27.8177L8.56587 35.605H12.7307L12.2853 27.3635C12.2897 27.3362 12.2885 27.3084 12.2819 27.2816C12.2752 27.2548 12.2632 27.2296 12.2466 27.2075C12.2299 27.1855 12.209 27.167 12.185 27.1533C12.1611 27.1395 12.1346 27.1308 12.1071 27.1275C12.0529 27.1198 11.9977 27.1337 11.9536 27.1662C11.9095 27.1986 11.8798 27.2471 11.871 27.3012C11.8666 27.3217 11.8666 27.343 11.871 27.3635V33.686H10.0046V27.3012L8.90886 26.2148L10.0002 25.1284V18.7436H12.0759C12.0269 19.2258 12.018 19.7113 12.0492 20.1951H13.5147C13.5963 19.3058 14.0213 18.4832 14.6996 17.902C17.1941 14.8209 27.7554 16.6197 27.7554 16.6197L28.927 14.8922L28.4815 16.6197C30.9671 17.2119 31.1809 20.1416 31.1809 20.1416H32.2945C32.6293 19.7215 32.8926 19.2491 33.074 18.7436H34.4549V25.1284L35.5462 26.2148L34.4549 27.3012V33.686H32.1742L32.6197 35.605H36.7845L36.3391 27.8177L37.9427 26.2148L36.3391 24.6119Z" fill="white"/>
<path d="M57.7549 31.5V15.5H61.6221V28.3594H68.2783V31.5H57.7549ZM72.9131 31.5L68.2568 15.5H72.5303L74.9443 25.9844H75.0771L77.835 15.5H81.3193L84.0771 26.0078H84.21L86.6318 15.5H90.8975L86.249 31.5H82.5225L79.6396 21.7969H79.5146L76.6318 31.5H72.9131ZM100.95 20.2969C100.898 19.724 100.666 19.2786 100.255 18.9609C99.8486 18.638 99.2679 18.4766 98.5127 18.4766C98.0127 18.4766 97.596 18.5417 97.2627 18.6719C96.9294 18.8021 96.6794 18.9818 96.5127 19.2109C96.346 19.4349 96.2601 19.6927 96.2549 19.9844C96.2445 20.224 96.2913 20.4349 96.3955 20.6172C96.5049 20.7995 96.6611 20.9609 96.8643 21.1016C97.0726 21.237 97.3226 21.3568 97.6143 21.4609C97.9059 21.5651 98.234 21.6562 98.5986 21.7344L99.9736 22.0469C100.765 22.2188 101.463 22.4479 102.067 22.7344C102.677 23.0208 103.187 23.362 103.599 23.7578C104.015 24.1536 104.33 24.6094 104.544 25.125C104.757 25.6406 104.867 26.2187 104.872 26.8594C104.867 27.8698 104.612 28.737 104.106 29.4609C103.601 30.1849 102.875 30.7396 101.927 31.125C100.984 31.5104 99.846 31.7031 98.5127 31.7031C97.1742 31.7031 96.0075 31.5026 95.0127 31.1016C94.0179 30.7005 93.2445 30.0911 92.6924 29.2734C92.1403 28.4557 91.8564 27.4219 91.8408 26.1719H95.5439C95.5752 26.6875 95.7132 27.1172 95.958 27.4609C96.2028 27.8047 96.5387 28.0651 96.9658 28.2422C97.3981 28.4193 97.8981 28.5078 98.4658 28.5078C98.9867 28.5078 99.4294 28.4375 99.7939 28.2969C100.164 28.1563 100.448 27.9609 100.646 27.7109C100.843 27.4609 100.945 27.1745 100.95 26.8516C100.945 26.5495 100.851 26.2917 100.669 26.0781C100.487 25.8594 100.205 25.6719 99.8252 25.5156C99.4502 25.3542 98.971 25.2057 98.3877 25.0703L96.7158 24.6797C95.3304 24.362 94.2393 23.849 93.4424 23.1406C92.6455 22.4271 92.2497 21.4635 92.2549 20.25C92.2497 19.2604 92.5153 18.3932 93.0518 17.6484C93.5882 16.9036 94.3304 16.3229 95.2783 15.9063C96.2262 15.4896 97.307 15.2812 98.5205 15.2812C99.7601 15.2812 100.836 15.4922 101.747 15.9141C102.664 16.3307 103.375 16.9167 103.88 17.6719C104.385 18.4271 104.643 19.3021 104.653 20.2969H100.95ZM112.278 31.5V15.5H114.216V29.7812H121.653V31.5H112.278ZM129.435 31.75C128.278 31.75 127.281 31.4948 126.442 30.9844C125.609 30.4688 124.966 29.75 124.513 28.8281C124.065 27.901 123.841 26.8229 123.841 25.5938C123.841 24.3646 124.065 23.2812 124.513 22.3437C124.966 21.401 125.596 20.6667 126.403 20.1406C127.216 19.6094 128.164 19.3438 129.247 19.3438C129.872 19.3438 130.489 19.4479 131.099 19.6562C131.708 19.8646 132.263 20.2031 132.763 20.6719C133.263 21.1354 133.661 21.75 133.958 22.5156C134.255 23.2812 134.403 24.224 134.403 25.3437V26.125H125.153V24.5312H132.528C132.528 23.8542 132.393 23.25 132.122 22.7187C131.856 22.1875 131.476 21.7682 130.981 21.4609C130.492 21.1536 129.914 21 129.247 21C128.513 21 127.877 21.1823 127.341 21.5469C126.81 21.9062 126.401 22.375 126.114 22.9531C125.828 23.5312 125.685 24.151 125.685 24.8125V25.875C125.685 26.7813 125.841 27.5495 126.153 28.1797C126.471 28.8047 126.911 29.2812 127.474 29.6094C128.036 29.9323 128.69 30.0938 129.435 30.0938C129.919 30.0938 130.356 30.026 130.747 29.8906C131.143 29.75 131.484 29.5417 131.771 29.2656C132.057 28.9844 132.278 28.6354 132.435 28.2187L134.216 28.7188C134.028 29.3229 133.713 29.8542 133.271 30.3125C132.828 30.7656 132.281 31.1198 131.63 31.375C130.979 31.625 130.247 31.75 129.435 31.75ZM140.739 31.7813C139.979 31.7813 139.289 31.638 138.669 31.3516C138.049 31.0599 137.557 30.6406 137.192 30.0938C136.828 29.5417 136.646 28.875 136.646 28.0937C136.646 27.4062 136.781 26.849 137.052 26.4219C137.323 25.9896 137.685 25.651 138.138 25.4062C138.591 25.1615 139.091 24.9792 139.638 24.8594C140.19 24.7344 140.744 24.6354 141.302 24.5625C142.031 24.4687 142.622 24.3984 143.075 24.3516C143.534 24.2995 143.867 24.2135 144.075 24.0937C144.289 23.974 144.396 23.7656 144.396 23.4687V23.4062C144.396 22.6354 144.185 22.0365 143.763 21.6094C143.346 21.1823 142.713 20.9687 141.864 20.9687C140.984 20.9687 140.294 21.1615 139.794 21.5469C139.294 21.9323 138.942 22.3437 138.739 22.7812L136.989 22.1562C137.302 21.4271 137.718 20.8594 138.239 20.4531C138.765 20.0417 139.338 19.7552 139.958 19.5937C140.583 19.4271 141.198 19.3438 141.802 19.3438C142.187 19.3438 142.63 19.3906 143.13 19.4844C143.635 19.5729 144.122 19.7578 144.591 20.0391C145.065 20.3203 145.458 20.7448 145.771 21.3125C146.083 21.8802 146.239 22.6406 146.239 23.5938V31.5H144.396V29.875H144.302C144.177 30.1354 143.968 30.4141 143.677 30.7109C143.385 31.0078 142.997 31.2604 142.513 31.4687C142.028 31.6771 141.437 31.7813 140.739 31.7813ZM141.021 30.125C141.75 30.125 142.364 29.9818 142.864 29.6953C143.369 29.4089 143.75 29.0391 144.005 28.5859C144.265 28.1328 144.396 27.6562 144.396 27.1562V25.4687C144.317 25.5625 144.146 25.6484 143.88 25.7266C143.619 25.7995 143.317 25.8646 142.974 25.9219C142.635 25.974 142.304 26.0208 141.981 26.0625C141.664 26.099 141.406 26.1302 141.208 26.1562C140.729 26.2187 140.281 26.3203 139.864 26.4609C139.453 26.5964 139.119 26.8021 138.864 27.0781C138.614 27.349 138.489 27.7187 138.489 28.1875C138.489 28.8281 138.726 29.3125 139.2 29.6406C139.679 29.9635 140.286 30.125 141.021 30.125ZM149.604 31.5V19.5H151.386V21.3125H151.511C151.729 20.7188 152.125 20.237 152.698 19.8672C153.271 19.4974 153.917 19.3125 154.636 19.3125C154.771 19.3125 154.94 19.3151 155.144 19.3203C155.347 19.3255 155.5 19.3333 155.604 19.3438V21.2187C155.542 21.2031 155.399 21.1797 155.175 21.1484C154.956 21.112 154.724 21.0937 154.479 21.0937C153.896 21.0937 153.375 21.2161 152.917 21.4609C152.464 21.7005 152.104 22.0339 151.839 22.4609C151.578 22.8828 151.448 23.3646 151.448 23.9062V31.5H149.604ZM159.634 24.2812V31.5H157.79V19.5H159.571V21.375H159.728C160.009 20.7656 160.436 20.276 161.009 19.9063C161.582 19.5313 162.321 19.3438 163.228 19.3438C164.04 19.3438 164.751 19.5104 165.36 19.8437C165.97 20.1719 166.444 20.6719 166.782 21.3437C167.121 22.0104 167.29 22.8542 167.29 23.875V31.5H165.446V24C165.446 23.0573 165.201 22.3229 164.712 21.7969C164.222 21.2656 163.55 21 162.696 21C162.108 21 161.582 21.1276 161.118 21.3828C160.66 21.638 160.298 22.0104 160.032 22.5C159.767 22.9896 159.634 23.5833 159.634 24.2812ZM170.659 31.5V19.5H172.503V31.5H170.659ZM171.597 17.5C171.237 17.5 170.927 17.3776 170.667 17.1328C170.412 16.888 170.284 16.5938 170.284 16.25C170.284 15.9063 170.412 15.612 170.667 15.3672C170.927 15.1224 171.237 15 171.597 15C171.956 15 172.263 15.1224 172.519 15.3672C172.779 15.612 172.909 15.9063 172.909 16.25C172.909 16.5938 172.779 16.888 172.519 17.1328C172.263 17.3776 171.956 17.5 171.597 17.5ZM177.724 24.2812V31.5H175.88V19.5H177.661V21.375H177.817C178.099 20.7656 178.526 20.276 179.099 19.9063C179.672 19.5313 180.411 19.3438 181.317 19.3438C182.13 19.3438 182.841 19.5104 183.45 19.8437C184.06 20.1719 184.534 20.6719 184.872 21.3437C185.211 22.0104 185.38 22.8542 185.38 23.875V31.5H183.536V24C183.536 23.0573 183.291 22.3229 182.802 21.7969C182.312 21.2656 181.64 21 180.786 21C180.198 21 179.672 21.1276 179.208 21.3828C178.75 21.638 178.388 22.0104 178.122 22.5C177.856 22.9896 177.724 23.5833 177.724 24.2812ZM193.593 36.25C192.702 36.25 191.937 36.1354 191.296 35.9063C190.655 35.6823 190.121 35.3854 189.694 35.0156C189.272 34.651 188.937 34.2604 188.687 33.8438L190.155 32.8125C190.322 33.0313 190.533 33.2813 190.788 33.5625C191.043 33.849 191.392 34.0964 191.835 34.3047C192.283 34.5182 192.869 34.625 193.593 34.625C194.562 34.625 195.361 34.3906 195.991 33.9219C196.621 33.4531 196.937 32.7187 196.937 31.7187V29.2812H196.78C196.645 29.5 196.452 29.7708 196.202 30.0938C195.957 30.4115 195.603 30.6953 195.14 30.9453C194.681 31.1901 194.062 31.3125 193.28 31.3125C192.312 31.3125 191.442 31.0833 190.671 30.625C189.905 30.1667 189.299 29.5 188.851 28.625C188.408 27.75 188.187 26.6875 188.187 25.4375C188.187 24.2083 188.403 23.138 188.835 22.2266C189.267 21.3099 189.869 20.6016 190.64 20.1016C191.41 19.5964 192.301 19.3438 193.312 19.3438C194.093 19.3438 194.713 19.474 195.171 19.7344C195.634 19.9896 195.989 20.2812 196.233 20.6094C196.483 20.9323 196.676 21.1979 196.812 21.4062H196.999V19.5H198.78V31.8438C198.78 32.875 198.546 33.7135 198.077 34.3594C197.614 35.0104 196.989 35.487 196.202 35.7891C195.421 36.0964 194.551 36.25 193.593 36.25ZM193.53 29.6562C194.27 29.6562 194.895 29.487 195.405 29.1484C195.916 28.8099 196.304 28.3229 196.569 27.6875C196.835 27.0521 196.968 26.2917 196.968 25.4062C196.968 24.5417 196.838 23.7786 196.577 23.1172C196.317 22.4557 195.931 21.9375 195.421 21.5625C194.91 21.1875 194.28 21 193.53 21C192.749 21 192.098 21.1979 191.577 21.5937C191.062 21.9896 190.674 22.5208 190.413 23.1875C190.158 23.8542 190.03 24.5937 190.03 25.4062C190.03 26.2396 190.16 26.9766 190.421 27.6172C190.687 28.2526 191.077 28.7526 191.593 29.1172C192.114 29.4766 192.759 29.6562 193.53 29.6562ZM208.593 31.5V15.5H213.999C215.254 15.5 216.28 15.7266 217.077 16.1797C217.879 16.6276 218.473 17.2344 218.858 18C219.244 18.7656 219.437 19.6198 219.437 20.5625C219.437 21.5052 219.244 22.362 218.858 23.1328C218.478 23.9036 217.89 24.5182 217.093 24.9766C216.296 25.4297 215.275 25.6562 214.03 25.6562H210.155V23.9375H213.968C214.827 23.9375 215.517 23.7891 216.038 23.4922C216.559 23.1953 216.937 22.7943 217.171 22.2891C217.41 21.7786 217.53 21.2031 217.53 20.5625C217.53 19.9219 217.41 19.349 217.171 18.8437C216.937 18.3385 216.556 17.9427 216.03 17.6562C215.504 17.3646 214.806 17.2187 213.937 17.2187H210.53V31.5H208.593ZM227.054 31.75C225.97 31.75 225.02 31.4922 224.202 30.9766C223.39 30.4609 222.754 29.7396 222.296 28.8125C221.843 27.8854 221.616 26.8021 221.616 25.5625C221.616 24.3125 221.843 23.2214 222.296 22.2891C222.754 21.3568 223.39 20.6328 224.202 20.1172C225.02 19.6016 225.97 19.3438 227.054 19.3438C228.137 19.3438 229.085 19.6016 229.897 20.1172C230.715 20.6328 231.351 21.3568 231.804 22.2891C232.262 23.2214 232.491 24.3125 232.491 25.5625C232.491 26.8021 232.262 27.8854 231.804 28.8125C231.351 29.7396 230.715 30.4609 229.897 30.9766C229.085 31.4922 228.137 31.75 227.054 31.75ZM227.054 30.0938C227.877 30.0938 228.554 29.8828 229.085 29.4609C229.616 29.0391 230.009 28.4844 230.265 27.7969C230.52 27.1094 230.647 26.3646 230.647 25.5625C230.647 24.7604 230.52 24.013 230.265 23.3203C230.009 22.6276 229.616 22.0677 229.085 21.6406C228.554 21.2135 227.877 21 227.054 21C226.231 21 225.554 21.2135 225.022 21.6406C224.491 22.0677 224.098 22.6276 223.843 23.3203C223.588 24.013 223.46 24.7604 223.46 25.5625C223.46 26.3646 223.588 27.1094 223.843 27.7969C224.098 28.4844 224.491 29.0391 225.022 29.4609C225.554 29.8828 226.231 30.0938 227.054 30.0938ZM235.306 31.5V19.5H237.087V21.3125H237.212C237.431 20.7188 237.826 20.237 238.399 19.8672C238.972 19.4974 239.618 19.3125 240.337 19.3125C240.472 19.3125 240.642 19.3151 240.845 19.3203C241.048 19.3255 241.201 19.3333 241.306 19.3438V21.2187C241.243 21.2031 241.1 21.1797 240.876 21.1484C240.657 21.112 240.425 21.0937 240.181 21.0937C239.597 21.0937 239.076 21.2161 238.618 21.4609C238.165 21.7005 237.806 22.0339 237.54 22.4609C237.28 22.8828 237.149 23.3646 237.149 23.9062V31.5H235.306ZM249.462 19.5V21.0625H243.243V19.5H249.462ZM245.056 16.625H246.899V28.0625C246.899 28.5833 246.975 28.974 247.126 29.2344C247.282 29.4896 247.48 29.6615 247.72 29.75C247.965 29.8333 248.222 29.875 248.493 29.875C248.696 29.875 248.863 29.8646 248.993 29.8437C249.123 29.8177 249.228 29.7969 249.306 29.7812L249.681 31.4375C249.556 31.4844 249.381 31.5313 249.157 31.5781C248.933 31.6302 248.649 31.6563 248.306 31.6563C247.785 31.6563 247.274 31.5443 246.774 31.3203C246.28 31.0964 245.868 30.7552 245.54 30.2969C245.217 29.8385 245.056 29.2604 245.056 28.5625V16.625ZM255.767 31.7813C255.006 31.7813 254.316 31.638 253.696 31.3516C253.076 31.0599 252.584 30.6406 252.22 30.0938C251.855 29.5417 251.673 28.875 251.673 28.0937C251.673 27.4062 251.808 26.849 252.079 26.4219C252.35 25.9896 252.712 25.651 253.165 25.4062C253.618 25.1615 254.118 24.9792 254.665 24.8594C255.217 24.7344 255.772 24.6354 256.329 24.5625C257.058 24.4687 257.649 24.3984 258.103 24.3516C258.561 24.2995 258.894 24.2135 259.103 24.0937C259.316 23.974 259.423 23.7656 259.423 23.4687V23.4062C259.423 22.6354 259.212 22.0365 258.79 21.6094C258.373 21.1823 257.741 20.9687 256.892 20.9687C256.011 20.9687 255.321 21.1615 254.821 21.5469C254.321 21.9323 253.97 22.3437 253.767 22.7812L252.017 22.1562C252.329 21.4271 252.746 20.8594 253.267 20.4531C253.793 20.0417 254.366 19.7552 254.985 19.5937C255.61 19.4271 256.225 19.3438 256.829 19.3438C257.215 19.3438 257.657 19.3906 258.157 19.4844C258.662 19.5729 259.149 19.7578 259.618 20.0391C260.092 20.3203 260.485 20.7448 260.798 21.3125C261.11 21.8802 261.267 22.6406 261.267 23.5938V31.5H259.423V29.875H259.329C259.204 30.1354 258.996 30.4141 258.704 30.7109C258.412 31.0078 258.024 31.2604 257.54 31.4687C257.056 31.6771 256.465 31.7813 255.767 31.7813ZM256.048 30.125C256.777 30.125 257.392 29.9818 257.892 29.6953C258.397 29.4089 258.777 29.0391 259.032 28.5859C259.293 28.1328 259.423 27.6562 259.423 27.1562V25.4687C259.345 25.5625 259.173 25.6484 258.907 25.7266C258.647 25.7995 258.345 25.8646 258.001 25.9219C257.662 25.974 257.332 26.0208 257.009 26.0625C256.691 26.099 256.433 26.1302 256.235 26.1562C255.756 26.2187 255.308 26.3203 254.892 26.4609C254.48 26.5964 254.147 26.8021 253.892 27.0781C253.642 27.349 253.517 27.7187 253.517 28.1875C253.517 28.8281 253.754 29.3125 254.228 29.6406C254.707 29.9635 255.313 30.125 256.048 30.125ZM266.476 15.5V31.5H264.632V15.5H266.476Z" fill="white"/>
</svg>
