<svg width="25" height="25" viewBox="0 0 25 25" fill="none" xmlns="http://www.w3.org/2000/svg">
<path d="M20.8843 7.89539L20.2593 18.5274C20.2256 19.1004 19.9742 19.6389 19.5564 20.0327C19.1387 20.4264 18.5863 20.6456 18.0123 20.6454H7.25628C6.68224 20.6456 6.12982 20.4264 5.7121 20.0327C5.29438 19.6389 5.04295 19.1004 5.00928 18.5274L4.38428 7.89539M10.3843 12.0204L12.6343 14.2704M12.6343 14.2704L14.8843 16.5204M12.6343 14.2704L14.8843 12.0204M12.6343 14.2704L10.3843 16.5204M4.00928 7.89539H21.2593C21.8803 7.89539 22.3843 7.39139 22.3843 6.77039V5.27039C22.3843 4.64939 21.8803 4.14539 21.2593 4.14539H4.00928C3.38828 4.14539 2.88428 4.64939 2.88428 5.27039V6.77039C2.88428 7.39139 3.38828 7.89539 4.00928 7.89539Z" stroke="#FF0F0F" stroke-width="1.5" stroke-linecap="round" stroke-linejoin="round"/>
</svg>
