<svg width="257" height="45" viewBox="0 0 257 45" fill="none" xmlns="http://www.w3.org/2000/svg">
<path d="M22.272 43.6341C34.0805 43.6341 43.6532 34.0657 43.6532 22.2623C43.6532 10.459 34.0805 0.890564 22.272 0.890564C10.4635 0.890564 0.890869 10.459 0.890869 22.2623C0.890869 34.0657 10.4635 43.6341 22.272 43.6341Z" fill="#171C2A"/>
<path d="M22.272 44.5246C17.867 44.5246 13.561 43.2189 9.89836 40.7727C6.23575 38.3265 3.38108 34.8496 1.69537 30.7817C0.00965009 26.7138 -0.43141 22.2376 0.427961 17.9191C1.28733 13.6007 3.40854 9.63391 6.52334 6.52048C9.63813 3.40704 13.6066 1.28677 17.927 0.427773C22.2473 -0.431221 26.7255 0.00964586 30.7952 1.69462C34.8649 3.3796 38.3433 6.23302 40.7906 9.89403C43.2378 13.555 44.5441 17.8592 44.5441 22.2623C44.537 28.1644 42.1882 33.8228 38.0129 37.9963C33.8376 42.1697 28.1768 44.5175 22.272 44.5246ZM22.272 1.78099C18.2194 1.78099 14.2579 2.9822 10.8883 5.23271C7.51865 7.48322 4.89236 10.682 3.3415 14.4244C1.79064 18.1669 1.38487 22.285 2.17549 26.258C2.96611 30.231 4.91762 33.8804 7.78323 36.7447C10.6488 39.6091 14.2999 41.5598 18.2746 42.35C22.2493 43.1403 26.3692 42.7347 30.1133 41.1845C33.8574 39.6343 37.0576 37.0092 39.3091 33.6411C41.5606 30.2729 42.7623 26.3131 42.7623 22.2623C42.7552 16.8325 40.5942 11.6271 36.753 7.78763C32.9119 3.94817 27.7042 1.78806 22.272 1.78099Z" fill="#00D991"/>
<path d="M17.0038 23.9323L16.8747 24.0614C16.8087 24.1276 16.8088 24.2347 16.8749 24.3007L18.8133 26.2356C18.8795 26.3016 18.9867 26.3015 19.0527 26.2354L19.1818 26.1063C19.2478 26.0401 19.2478 25.933 19.1816 25.867L17.2432 23.9321C17.177 23.8661 17.0698 23.8661 17.0038 23.9323Z" fill="white"/>
<path d="M17.0462 22.9383L16.9171 23.0674C16.851 23.1334 16.8509 23.2406 16.9171 23.3066L18.5171 24.906C18.5832 24.9721 18.6904 24.9721 18.7565 24.906L18.8856 24.7769C18.9517 24.7109 18.9517 24.6037 18.8856 24.5377L17.2856 22.9383C17.2195 22.8722 17.1123 22.8722 17.0462 22.9383Z" fill="white"/>
<path d="M27.952 23.9373L27.823 24.0665C27.7569 24.1326 27.757 24.2397 27.8231 24.3058L29.7616 26.2407C29.8277 26.3067 29.9349 26.3066 30.001 26.2405L30.13 26.1113C30.1961 26.0452 30.196 25.9381 30.1298 25.872L28.1914 23.9372C28.1253 23.8711 28.0181 23.8712 27.952 23.9373Z" fill="white"/>
<path d="M27.981 22.9392L27.8517 23.0682C27.7856 23.1342 27.7855 23.2413 27.8515 23.3074L29.4502 24.9082C29.5162 24.9743 29.6234 24.9744 29.6896 24.9084L29.8188 24.7794C29.885 24.7134 29.8851 24.6063 29.819 24.5402L28.2204 22.9394C28.1543 22.8733 28.0471 22.8732 27.981 22.9392Z" fill="white"/>
<path fill-rule="evenodd" clip-rule="evenodd" d="M32.5172 25.1342H32.0717C31.9454 24.0801 31.4399 23.1078 30.6496 22.3984C29.8593 21.6891 28.8379 21.2911 27.7758 21.2786C26.7137 21.266 25.6833 21.6398 24.8765 22.3303C24.0696 23.0208 23.5414 23.9809 23.3901 25.0318C23.154 25.0852 22.232 25.1342 22.232 25.1342C22.232 25.1342 21.3411 25.0897 21.1228 25.0407C20.9726 23.9898 20.4453 23.0292 19.6392 22.338C18.833 21.6467 17.803 21.2719 16.741 21.2834C15.679 21.2948 14.6573 21.6917 13.8662 22.4001C13.0752 23.1086 12.5687 24.0803 12.4412 25.1342H11.9423C11.8525 25.1342 11.7664 25.1699 11.7029 25.2333C11.6394 25.2968 11.6038 25.3829 11.6038 25.4726V25.8244C11.6049 25.9126 11.6405 25.9968 11.7029 26.0592C11.7653 26.1216 11.8496 26.1571 11.9378 26.1583H12.4189C12.5441 27.2127 13.0485 28.1856 13.8381 28.8958C14.6278 29.6061 15.6488 30.0052 16.7109 30.0188C17.7731 30.0324 18.804 29.6596 19.6115 28.9698C20.4191 28.2801 20.9483 27.3204 21.1005 26.2696C21.3455 26.2206 22.2097 26.1716 22.2097 26.1716C22.2097 26.1716 23.1273 26.2295 23.3678 26.2785C23.4987 27.3482 24.0198 28.332 24.8313 29.0415C25.6428 29.751 26.6876 30.1364 27.7657 30.1237C28.8437 30.111 29.8792 29.7012 30.6738 28.9728C31.4683 28.2444 31.9661 27.2486 32.0717 26.1761H32.5172C32.6055 26.1761 32.6902 26.1417 32.7535 26.0802C32.8167 26.0186 32.8534 25.9348 32.8557 25.8466V25.4771C32.8557 25.3873 32.8201 25.3012 32.7566 25.2378C32.6931 25.1743 32.607 25.1387 32.5172 25.1387V25.1342ZM16.7664 28.9901C16.1065 28.9901 15.4615 28.7945 14.9128 28.428C14.3642 28.0616 13.9366 27.5407 13.684 26.9314C13.4315 26.322 13.3654 25.6515 13.4942 25.0046C13.6229 24.3577 13.9407 23.7634 14.4073 23.297C14.8739 22.8306 15.4683 22.513 16.1155 22.3844C16.7627 22.2557 17.4335 22.3217 18.0432 22.5741C18.6528 22.8265 19.1739 23.254 19.5405 23.8024C19.9071 24.3508 20.1028 24.9956 20.1028 25.6552C20.1028 26.5396 19.7513 27.3879 19.1256 28.0133C18.4999 28.6387 17.6513 28.9901 16.7664 28.9901ZM27.702 28.9901C27.0421 28.9901 26.3971 28.7945 25.8484 28.428C25.2997 28.0616 24.8721 27.5407 24.6196 26.9314C24.3671 26.322 24.301 25.6515 24.4297 25.0046C24.5585 24.3577 24.8762 23.7634 25.3428 23.297C25.8094 22.8306 26.4039 22.513 27.0511 22.3844C27.6983 22.2557 28.3691 22.3217 28.9787 22.5741C29.5884 22.8265 30.1094 23.254 30.4761 23.8024C30.8427 24.3508 31.0383 24.9956 31.0383 25.6552C31.0383 26.5396 30.6868 27.3879 30.0611 28.0133C29.4354 28.6387 28.5868 28.9901 27.702 28.9901Z" fill="white"/>
<path d="M36.3391 23.8742V16.0868H33.5996C33.7598 15.2309 33.8625 14.3652 33.907 13.4955L32.2945 14.6932C33.1854 13.6647 32.2945 8.86938 32.2945 8.86938C32.2945 8.86938 31.1185 11.1758 23.7866 10.588C16.4546 10.0003 15.4257 12.9122 15.4257 12.9122C14.5348 12.0217 15.4257 10.5658 15.4257 10.5658C15.16 10.6885 14.9211 10.8623 14.7227 11.0773C14.5243 11.2923 14.3702 11.5443 14.2693 11.8188C14.1683 12.0934 14.1225 12.3852 14.1345 12.6774C14.1464 12.9697 14.2158 13.2568 14.3388 13.5222L14.4011 13.6424H12.0269L13.6662 14.6932C13.1496 15.0358 12.7526 15.5307 12.5303 16.1091H8.12043V23.8742L6.51685 25.477L8.12043 27.0799L8.56587 34.8673H12.7307L12.2853 26.6258C12.2897 26.5985 12.2885 26.5706 12.2819 26.5438C12.2752 26.517 12.2632 26.4918 12.2466 26.4698C12.2299 26.4478 12.209 26.4293 12.185 26.4156C12.1611 26.4018 12.1346 26.393 12.1071 26.3898C12.0529 26.3821 11.9977 26.396 11.9536 26.4284C11.9095 26.4609 11.8798 26.5094 11.871 26.5634C11.8666 26.584 11.8666 26.6052 11.871 26.6258V32.9483H10.0046V26.5634L8.90886 25.477L10.0002 24.3906V18.0058H12.0759C12.0269 18.4881 12.018 18.9736 12.0492 19.4573H13.5147C13.5963 18.568 14.0213 17.7455 14.6996 17.1643C17.1941 14.0832 27.7554 15.882 27.7554 15.882L28.927 14.1544L28.4815 15.882C30.9671 16.4742 31.1809 19.4039 31.1809 19.4039H32.2945C32.6293 18.9837 32.8926 18.5114 33.074 18.0058H34.4549V24.3906L35.5462 25.477L34.4549 26.5634V32.9483H32.1742L32.6197 34.8673H36.7845L36.3391 27.0799L37.9427 25.477L36.3391 23.8742Z" fill="white"/>
<path d="M57.7549 30.7623V14.7623H61.6221V27.6216H68.2783V30.7623H57.7549ZM72.9131 30.7623L68.2568 14.7623H72.5303L74.9443 25.2466H75.0771L77.835 14.7623H81.3193L84.0771 25.2701H84.21L86.6318 14.7623H90.8975L86.249 30.7623H82.5225L79.6396 21.0591H79.5146L76.6318 30.7623H72.9131ZM100.95 19.5591C100.898 18.9862 100.666 18.5409 100.255 18.2232C99.8486 17.9003 99.2679 17.7388 98.5127 17.7388C98.0127 17.7388 97.596 17.8039 97.2627 17.9341C96.9294 18.0644 96.6794 18.244 96.5127 18.4732C96.346 18.6972 96.2601 18.955 96.2549 19.2466C96.2445 19.4862 96.2913 19.6972 96.3955 19.8795C96.5049 20.0617 96.6611 20.2232 96.8643 20.3638C97.0726 20.4992 97.3226 20.619 97.6143 20.7232C97.9059 20.8274 98.234 20.9185 98.5986 20.9966L99.9736 21.3091C100.765 21.481 101.463 21.7102 102.067 21.9966C102.677 22.2831 103.187 22.6242 103.599 23.0201C104.015 23.4159 104.33 23.8716 104.544 24.3873C104.757 24.9029 104.867 25.481 104.872 26.1216C104.867 27.1321 104.612 27.9992 104.106 28.7232C103.601 29.4472 102.875 30.0019 101.927 30.3873C100.984 30.7727 99.846 30.9654 98.5127 30.9654C97.1742 30.9654 96.0075 30.7649 95.0127 30.3638C94.0179 29.9628 93.2445 29.3534 92.6924 28.5357C92.1403 27.718 91.8564 26.6841 91.8408 25.4341H95.5439C95.5752 25.9498 95.7132 26.3795 95.958 26.7232C96.2028 27.067 96.5387 27.3274 96.9658 27.5045C97.3981 27.6815 97.8981 27.7701 98.4658 27.7701C98.9867 27.7701 99.4294 27.6998 99.7939 27.5591C100.164 27.4185 100.448 27.2232 100.646 26.9732C100.843 26.7232 100.945 26.4367 100.95 26.1138C100.945 25.8117 100.851 25.5539 100.669 25.3404C100.487 25.1216 100.205 24.9341 99.8252 24.7779C99.4502 24.6164 98.971 24.468 98.3877 24.3326L96.7158 23.942C95.3304 23.6242 94.2393 23.1112 93.4424 22.4029C92.6455 21.6894 92.2497 20.7258 92.2549 19.5123C92.2497 18.5227 92.5153 17.6555 93.0518 16.9107C93.5882 16.1659 94.3304 15.5852 95.2783 15.1685C96.2262 14.7519 97.307 14.5435 98.5205 14.5435C99.7601 14.5435 100.836 14.7545 101.747 15.1763C102.664 15.593 103.375 16.1789 103.88 16.9341C104.385 17.6894 104.643 18.5644 104.653 19.5591H100.95ZM111.403 16.481V14.7623H123.403V16.481H118.372V30.7623H116.435V16.481H111.403ZM128.042 31.0435C127.282 31.0435 126.591 30.9003 125.972 30.6138C125.352 30.3222 124.86 29.9029 124.495 29.356C124.131 28.8039 123.948 28.1373 123.948 27.356C123.948 26.6685 124.084 26.1112 124.354 25.6841C124.625 25.2519 124.987 24.9133 125.44 24.6685C125.894 24.4237 126.394 24.2414 126.94 24.1216C127.493 23.9966 128.047 23.8977 128.604 23.8248C129.334 23.731 129.925 23.6607 130.378 23.6138C130.836 23.5617 131.17 23.4758 131.378 23.356C131.591 23.2362 131.698 23.0279 131.698 22.731V22.6685C131.698 21.8977 131.487 21.2987 131.065 20.8716C130.649 20.4446 130.016 20.231 129.167 20.231C128.287 20.231 127.597 20.4237 127.097 20.8091C126.597 21.1946 126.245 21.606 126.042 22.0435L124.292 21.4185C124.604 20.6894 125.021 20.1216 125.542 19.7154C126.068 19.3039 126.641 19.0175 127.261 18.856C127.886 18.6894 128.5 18.606 129.104 18.606C129.49 18.606 129.933 18.6529 130.433 18.7466C130.938 18.8352 131.425 19.0201 131.894 19.3013C132.368 19.5826 132.761 20.0071 133.073 20.5748C133.386 21.1425 133.542 21.9029 133.542 22.856V30.7623H131.698V29.1373H131.604C131.479 29.3977 131.271 29.6763 130.979 29.9732C130.688 30.2701 130.3 30.5227 129.815 30.731C129.331 30.9394 128.74 31.0435 128.042 31.0435ZM128.323 29.3873C129.052 29.3873 129.667 29.244 130.167 28.9576C130.672 28.6711 131.052 28.3013 131.308 27.8482C131.568 27.3951 131.698 26.9185 131.698 26.4185V24.731C131.62 24.8248 131.448 24.9107 131.183 24.9888C130.922 25.0617 130.62 25.1269 130.276 25.1841C129.938 25.2362 129.607 25.2831 129.284 25.3248C128.966 25.3612 128.709 25.3925 128.511 25.4185C128.032 25.481 127.584 25.5826 127.167 25.7232C126.756 25.8586 126.422 26.0644 126.167 26.3404C125.917 26.6112 125.792 26.981 125.792 27.4498C125.792 28.0904 126.029 28.5748 126.503 28.9029C126.982 29.2258 127.589 29.3873 128.323 29.3873ZM145.407 21.4498L143.751 21.9185C143.647 21.6425 143.493 21.3742 143.29 21.1138C143.092 20.8482 142.821 20.6295 142.478 20.4576C142.134 20.2857 141.694 20.1998 141.157 20.1998C140.423 20.1998 139.811 20.369 139.321 20.7076C138.837 21.0409 138.595 21.4654 138.595 21.981C138.595 22.4394 138.761 22.8013 139.095 23.067C139.428 23.3326 139.949 23.5539 140.657 23.731L142.438 24.1685C143.511 24.4289 144.311 24.8274 144.837 25.3638C145.363 25.8951 145.626 26.58 145.626 27.4185C145.626 28.106 145.428 28.7206 145.032 29.2623C144.642 29.8039 144.095 30.231 143.392 30.5435C142.688 30.856 141.871 31.0123 140.938 31.0123C139.715 31.0123 138.701 30.7466 137.899 30.2154C137.097 29.6841 136.59 28.9081 136.376 27.8873L138.126 27.4498C138.293 28.0956 138.608 28.58 139.071 28.9029C139.54 29.2258 140.152 29.3873 140.907 29.3873C141.767 29.3873 142.449 29.205 142.954 28.8404C143.465 28.4706 143.72 28.0279 143.72 27.5123C143.72 27.0956 143.574 26.7466 143.282 26.4654C142.991 26.1789 142.543 25.9654 141.938 25.8248L139.938 25.356C138.84 25.0956 138.032 24.692 137.517 24.1451C137.006 23.593 136.751 22.9029 136.751 22.0748C136.751 21.3977 136.941 20.7987 137.321 20.2779C137.707 19.7571 138.23 19.3482 138.892 19.0513C139.558 18.7545 140.313 18.606 141.157 18.606C142.345 18.606 143.277 18.8664 143.954 19.3873C144.636 19.9081 145.121 20.5956 145.407 21.4498ZM150.12 26.3873L150.089 24.106H150.464L155.714 18.7623H157.995L152.401 24.4185H152.245L150.12 26.3873ZM148.401 30.7623V14.7623H150.245V30.7623H148.401ZM156.026 30.7623L151.339 24.8248L152.651 23.5435L158.37 30.7623H156.026ZM166.806 14.7623H169.118L174.556 28.0435H174.743L180.181 14.7623H182.493V30.7623H180.681V18.606H180.524L175.524 30.7623H173.774L168.774 18.606H168.618V30.7623H166.806V14.7623ZM189.659 31.0435C188.899 31.0435 188.209 30.9003 187.589 30.6138C186.969 30.3222 186.477 29.9029 186.112 29.356C185.748 28.8039 185.565 28.1373 185.565 27.356C185.565 26.6685 185.701 26.1112 185.972 25.6841C186.243 25.2519 186.604 24.9133 187.058 24.6685C187.511 24.4237 188.011 24.2414 188.558 24.1216C189.11 23.9966 189.664 23.8977 190.222 23.8248C190.951 23.731 191.542 23.6607 191.995 23.6138C192.453 23.5617 192.787 23.4758 192.995 23.356C193.209 23.2362 193.315 23.0279 193.315 22.731V22.6685C193.315 21.8977 193.104 21.2987 192.683 20.8716C192.266 20.4446 191.633 20.231 190.784 20.231C189.904 20.231 189.214 20.4237 188.714 20.8091C188.214 21.1946 187.862 21.606 187.659 22.0435L185.909 21.4185C186.222 20.6894 186.638 20.1216 187.159 19.7154C187.685 19.3039 188.258 19.0175 188.878 18.856C189.503 18.6894 190.118 18.606 190.722 18.606C191.107 18.606 191.55 18.6529 192.05 18.7466C192.555 18.8352 193.042 19.0201 193.511 19.3013C193.985 19.5826 194.378 20.0071 194.69 20.5748C195.003 21.1425 195.159 21.9029 195.159 22.856V30.7623H193.315V29.1373H193.222C193.097 29.3977 192.888 29.6763 192.597 29.9732C192.305 30.2701 191.917 30.5227 191.433 30.731C190.948 30.9394 190.357 31.0435 189.659 31.0435ZM189.94 29.3873C190.67 29.3873 191.284 29.244 191.784 28.9576C192.289 28.6711 192.67 28.3013 192.925 27.8482C193.185 27.3951 193.315 26.9185 193.315 26.4185V24.731C193.237 24.8248 193.065 24.9107 192.8 24.9888C192.539 25.0617 192.237 25.1269 191.894 25.1841C191.555 25.2362 191.224 25.2831 190.901 25.3248C190.584 25.3612 190.326 25.3925 190.128 25.4185C189.649 25.481 189.201 25.5826 188.784 25.7232C188.373 25.8586 188.039 26.0644 187.784 26.3404C187.534 26.6112 187.409 26.981 187.409 27.4498C187.409 28.0904 187.646 28.5748 188.12 28.9029C188.599 29.2258 189.206 29.3873 189.94 29.3873ZM200.368 23.5435V30.7623H198.524V18.7623H200.306V20.6373H200.462C200.743 20.0279 201.17 19.5383 201.743 19.1685C202.316 18.7935 203.056 18.606 203.962 18.606C204.774 18.606 205.485 18.7727 206.095 19.106C206.704 19.4341 207.178 19.9341 207.517 20.606C207.855 21.2727 208.024 22.1164 208.024 23.1373V30.7623H206.181V23.2623C206.181 22.3196 205.936 21.5852 205.446 21.0591C204.957 20.5279 204.285 20.2623 203.431 20.2623C202.842 20.2623 202.316 20.3899 201.853 20.6451C201.394 20.9003 201.032 21.2727 200.767 21.7623C200.501 22.2519 200.368 22.8456 200.368 23.5435ZM214.925 31.0435C214.164 31.0435 213.474 30.9003 212.854 30.6138C212.235 30.3222 211.743 29.9029 211.378 29.356C211.013 28.8039 210.831 28.1373 210.831 27.356C210.831 26.6685 210.966 26.1112 211.237 25.6841C211.508 25.2519 211.87 24.9133 212.323 24.6685C212.776 24.4237 213.276 24.2414 213.823 24.1216C214.375 23.9966 214.93 23.8977 215.487 23.8248C216.216 23.731 216.808 23.6607 217.261 23.6138C217.719 23.5617 218.052 23.4758 218.261 23.356C218.474 23.2362 218.581 23.0279 218.581 22.731V22.6685C218.581 21.8977 218.37 21.2987 217.948 20.8716C217.532 20.4446 216.899 20.231 216.05 20.231C215.17 20.231 214.479 20.4237 213.979 20.8091C213.479 21.1946 213.128 21.606 212.925 22.0435L211.175 21.4185C211.487 20.6894 211.904 20.1216 212.425 19.7154C212.951 19.3039 213.524 19.0175 214.144 18.856C214.769 18.6894 215.383 18.606 215.987 18.606C216.373 18.606 216.815 18.6529 217.315 18.7466C217.821 18.8352 218.308 19.0201 218.776 19.3013C219.25 19.5826 219.644 20.0071 219.956 20.5748C220.269 21.1425 220.425 21.9029 220.425 22.856V30.7623H218.581V29.1373H218.487C218.362 29.3977 218.154 29.6763 217.862 29.9732C217.571 30.2701 217.183 30.5227 216.698 30.731C216.214 30.9394 215.623 31.0435 214.925 31.0435ZM215.206 29.3873C215.935 29.3873 216.55 29.244 217.05 28.9576C217.555 28.6711 217.935 28.3013 218.19 27.8482C218.451 27.3951 218.581 26.9185 218.581 26.4185V24.731C218.503 24.8248 218.331 24.9107 218.065 24.9888C217.805 25.0617 217.503 25.1269 217.159 25.1841C216.821 25.2362 216.49 25.2831 216.167 25.3248C215.849 25.3612 215.591 25.3925 215.394 25.4185C214.914 25.481 214.466 25.5826 214.05 25.7232C213.638 25.8586 213.305 26.0644 213.05 26.3404C212.8 26.6112 212.675 26.981 212.675 27.4498C212.675 28.0904 212.912 28.5748 213.386 28.9029C213.865 29.2258 214.472 29.3873 215.206 29.3873ZM228.634 35.5123C227.743 35.5123 226.978 35.3977 226.337 35.1685C225.696 34.9446 225.162 34.6477 224.735 34.2779C224.313 33.9133 223.978 33.5227 223.728 33.106L225.196 32.0748C225.363 32.2935 225.574 32.5435 225.829 32.8248C226.084 33.1112 226.433 33.3586 226.876 33.567C227.324 33.7805 227.91 33.8873 228.634 33.8873C229.603 33.8873 230.402 33.6529 231.032 33.1841C231.662 32.7154 231.978 31.981 231.978 30.981V28.5435H231.821C231.686 28.7623 231.493 29.0331 231.243 29.356C230.998 29.6737 230.644 29.9576 230.181 30.2076C229.722 30.4524 229.103 30.5748 228.321 30.5748C227.353 30.5748 226.483 30.3456 225.712 29.8873C224.946 29.4289 224.34 28.7623 223.892 27.8873C223.449 27.0123 223.228 25.9498 223.228 24.6998C223.228 23.4706 223.444 22.4003 223.876 21.4888C224.308 20.5722 224.91 19.8638 225.681 19.3638C226.451 18.8586 227.342 18.606 228.353 18.606C229.134 18.606 229.754 18.7362 230.212 18.9966C230.675 19.2519 231.03 19.5435 231.274 19.8716C231.524 20.1946 231.717 20.4602 231.853 20.6685H232.04V18.7623H233.821V31.106C233.821 32.1373 233.587 32.9758 233.118 33.6216C232.655 34.2727 232.03 34.7492 231.243 35.0513C230.462 35.3586 229.592 35.5123 228.634 35.5123ZM228.571 28.9185C229.311 28.9185 229.936 28.7492 230.446 28.4107C230.957 28.0722 231.345 27.5852 231.61 26.9498C231.876 26.3144 232.009 25.5539 232.009 24.6685C232.009 23.8039 231.879 23.0409 231.618 22.3795C231.358 21.718 230.972 21.1998 230.462 20.8248C229.951 20.4498 229.321 20.2623 228.571 20.2623C227.79 20.2623 227.139 20.4602 226.618 20.856C226.103 21.2519 225.715 21.7831 225.454 22.4498C225.199 23.1164 225.071 23.856 225.071 24.6685C225.071 25.5019 225.201 26.2388 225.462 26.8795C225.728 27.5149 226.118 28.0149 226.634 28.3795C227.155 28.7388 227.8 28.9185 228.571 28.9185ZM242.228 31.0123C241.071 31.0123 240.074 30.7571 239.235 30.2466C238.402 29.731 237.759 29.0123 237.306 28.0904C236.858 27.1633 236.634 26.0852 236.634 24.856C236.634 23.6269 236.858 22.5435 237.306 21.606C237.759 20.6633 238.389 19.9289 239.196 19.4029C240.009 18.8716 240.957 18.606 242.04 18.606C242.665 18.606 243.282 18.7102 243.892 18.9185C244.501 19.1269 245.056 19.4654 245.556 19.9341C246.056 20.3977 246.454 21.0123 246.751 21.7779C247.048 22.5435 247.196 23.4862 247.196 24.606V25.3873H237.946V23.7935H245.321C245.321 23.1164 245.186 22.5123 244.915 21.981C244.649 21.4498 244.269 21.0305 243.774 20.7232C243.285 20.4159 242.707 20.2623 242.04 20.2623C241.306 20.2623 240.67 20.4446 240.134 20.8091C239.603 21.1685 239.194 21.6373 238.907 22.2154C238.621 22.7935 238.478 23.4133 238.478 24.0748V25.1373C238.478 26.0435 238.634 26.8117 238.946 27.442C239.264 28.067 239.704 28.5435 240.267 28.8716C240.829 29.1946 241.483 29.356 242.228 29.356C242.712 29.356 243.149 29.2883 243.54 29.1529C243.936 29.0123 244.277 28.8039 244.563 28.5279C244.85 28.2466 245.071 27.8977 245.228 27.481L247.009 27.981C246.821 28.5852 246.506 29.1164 246.063 29.5748C245.621 30.0279 245.074 30.3821 244.423 30.6373C243.772 30.8873 243.04 31.0123 242.228 31.0123ZM250.001 30.7623V18.7623H251.782V20.5748H251.907C252.126 19.981 252.522 19.4992 253.095 19.1295C253.668 18.7597 254.313 18.5748 255.032 18.5748C255.168 18.5748 255.337 18.5774 255.54 18.5826C255.743 18.5878 255.897 18.5956 256.001 18.606V20.481C255.938 20.4654 255.795 20.442 255.571 20.4107C255.353 20.3742 255.121 20.356 254.876 20.356C254.293 20.356 253.772 20.4784 253.313 20.7232C252.86 20.9628 252.501 21.2961 252.235 21.7232C251.975 22.1451 251.845 22.6269 251.845 23.1685V30.7623H250.001Z" fill="black"/>
</svg>
