<svg width="222" height="45" viewBox="0 0 222 45" fill="none" xmlns="http://www.w3.org/2000/svg">
<path d="M22.2723 43.6341C34.0807 43.6341 43.6534 34.0657 43.6534 22.2623C43.6534 10.459 34.0807 0.890564 22.2723 0.890564C10.4638 0.890564 0.891113 10.459 0.891113 22.2623C0.891113 34.0657 10.4638 43.6341 22.2723 43.6341Z" fill="#171C2A"/>
<path d="M22.272 44.5246C17.867 44.5246 13.561 43.2189 9.89836 40.7727C6.23575 38.3265 3.38108 34.8496 1.69537 30.7817C0.00965009 26.7138 -0.43141 22.2376 0.427961 17.9191C1.28733 13.6007 3.40854 9.63391 6.52334 6.52048C9.63813 3.40704 13.6066 1.28677 17.927 0.427773C22.2473 -0.431221 26.7255 0.00964586 30.7952 1.69462C34.8649 3.3796 38.3433 6.23302 40.7905 9.89403C43.2378 13.555 44.5441 17.8592 44.5441 22.2623C44.537 28.1644 42.1882 33.8228 38.0129 37.9963C33.8376 42.1697 28.1768 44.5175 22.272 44.5246V44.5246ZM22.272 1.78099C18.2194 1.78099 14.2579 2.9822 10.8883 5.23271C7.51865 7.48322 4.89236 10.682 3.3415 14.4244C1.79064 18.1669 1.38487 22.285 2.17549 26.258C2.96611 30.231 4.91762 33.8804 7.78323 36.7447C10.6488 39.6091 14.2999 41.5598 18.2746 42.35C22.2493 43.1403 26.3692 42.7347 30.1133 41.1845C33.8574 39.6343 37.0576 37.0092 39.3091 33.6411C41.5606 30.2729 42.7623 26.3131 42.7623 22.2623C42.7552 16.8325 40.5942 11.6271 36.753 7.78763C32.9119 3.94817 27.7042 1.78806 22.272 1.78099V1.78099Z" fill="#00D991"/>
<path d="M17.004 23.9323L16.875 24.0614C16.8089 24.1276 16.809 24.2347 16.8751 24.3007L18.8136 26.2356C18.8797 26.3016 18.9869 26.3015 19.053 26.2354L19.182 26.1063C19.2481 26.0401 19.248 25.933 19.1818 25.867L17.2434 23.9321C17.1773 23.8661 17.0701 23.8661 17.004 23.9323Z" fill="white"/>
<path d="M17.0467 22.9383L16.9175 23.0674C16.8514 23.1334 16.8514 23.2406 16.9175 23.3066L18.5176 24.906C18.5837 24.9721 18.6909 24.9721 18.757 24.906L18.8861 24.7769C18.9522 24.7109 18.9522 24.6037 18.8861 24.5377L17.2861 22.9383C17.22 22.8722 17.1128 22.8722 17.0467 22.9383Z" fill="white"/>
<path d="M27.9523 23.9373L27.8232 24.0665C27.7572 24.1326 27.7572 24.2397 27.8234 24.3058L29.7618 26.2407C29.828 26.3067 29.9352 26.3066 30.0012 26.2405L30.1303 26.1113C30.1963 26.0452 30.1962 25.9381 30.1301 25.872L28.1916 23.9372C28.1255 23.8711 28.0183 23.8712 27.9523 23.9373Z" fill="white"/>
<path d="M27.981 22.9392L27.8517 23.0682C27.7856 23.1342 27.7855 23.2413 27.8515 23.3074L29.4502 24.9082C29.5162 24.9743 29.6234 24.9744 29.6896 24.9084L29.8188 24.7794C29.885 24.7134 29.8851 24.6063 29.819 24.5402L28.2204 22.9394C28.1543 22.8733 28.0471 22.8732 27.981 22.9392Z" fill="white"/>
<path fill-rule="evenodd" clip-rule="evenodd" d="M32.5174 25.1342H32.072C31.9456 24.0801 31.4402 23.1078 30.6498 22.3984C29.8595 21.6891 28.8382 21.2911 27.7761 21.2786C26.714 21.266 25.6835 21.6398 24.8767 22.3303C24.0698 23.0208 23.5416 23.9809 23.3904 25.0318C23.1543 25.0852 22.2322 25.1342 22.2322 25.1342C22.2322 25.1342 21.3413 25.0897 21.1231 25.0407C20.9728 23.9898 20.4455 23.0292 19.6394 22.338C18.8333 21.6467 17.8033 21.2719 16.7412 21.2834C15.6792 21.2948 14.6575 21.6917 13.8665 22.4001C13.0754 23.1086 12.569 24.0803 12.4414 25.1342H11.9425C11.8528 25.1342 11.7666 25.1699 11.7032 25.2333C11.6397 25.2968 11.604 25.3829 11.604 25.4726V25.8244C11.6052 25.9126 11.6407 25.9968 11.7031 26.0592C11.7655 26.1216 11.8498 26.1571 11.9381 26.1583H12.4192C12.5444 27.2127 13.0488 28.1856 13.8384 28.8958C14.628 29.6061 15.649 30.0052 16.7112 30.0188C17.7733 30.0324 18.8042 29.6596 19.6118 28.9698C20.4194 28.2801 20.9486 27.3204 21.1008 26.2696C21.3458 26.2206 22.2099 26.1716 22.2099 26.1716C22.2099 26.1716 23.1275 26.2295 23.3681 26.2785C23.499 27.3482 24.02 28.332 24.8315 29.0415C25.643 29.751 26.6879 30.1364 27.7659 30.1237C28.844 30.111 29.8795 29.7012 30.674 28.9728C31.4686 28.2444 31.9663 27.2486 32.072 26.1761H32.5174C32.6057 26.1761 32.6905 26.1417 32.7537 26.0802C32.817 26.0186 32.8536 25.9348 32.856 25.8466V25.8466V25.4771C32.856 25.3873 32.8203 25.3012 32.7568 25.2378C32.6933 25.1743 32.6072 25.1387 32.5174 25.1387V25.1342ZM16.7667 28.9901C16.1068 28.9901 15.4617 28.7945 14.9131 28.428C14.3644 28.0616 13.9368 27.5407 13.6843 26.9314C13.4318 26.322 13.3657 25.6515 13.4944 25.0046C13.6232 24.3577 13.9409 23.7634 14.4075 23.297C14.8741 22.8306 15.4686 22.513 16.1158 22.3844C16.763 22.2557 17.4338 22.3217 18.0434 22.5741C18.6531 22.8265 19.1741 23.254 19.5407 23.8024C19.9073 24.3508 20.103 24.9956 20.103 25.6552C20.103 26.5396 19.7515 27.3879 19.1258 28.0133C18.5001 28.6387 17.6515 28.9901 16.7667 28.9901ZM27.7022 28.9901C27.0424 28.9901 26.3973 28.7945 25.8486 28.428C25.3 28.0616 24.8724 27.5407 24.6198 26.9314C24.3673 26.322 24.3012 25.6515 24.43 25.0046C24.5587 24.3577 24.8765 23.7634 25.3431 23.297C25.8097 22.8306 26.4041 22.513 27.0513 22.3844C27.6985 22.2557 28.3693 22.3217 28.979 22.5741C29.5886 22.8265 30.1097 23.254 30.4763 23.8024C30.8429 24.3508 31.0386 24.9956 31.0386 25.6552V25.6552C31.0386 26.5396 30.6871 27.3879 30.0614 28.0133C29.4357 28.6387 28.5871 28.9901 27.7022 28.9901Z" fill="white"/>
<path d="M36.3393 23.8742V16.0868H33.5999C33.7601 15.2309 33.8628 14.3652 33.9072 13.4955L32.2947 14.6932C33.1856 13.6647 32.2947 8.86938 32.2947 8.86938C32.2947 8.86938 31.1188 11.1758 23.7868 10.588C16.4549 10.0003 15.4259 12.9122 15.4259 12.9122C14.535 12.0217 15.4259 10.5658 15.4259 10.5658C15.1602 10.6885 14.9214 10.8623 14.723 11.0773C14.5245 11.2923 14.3705 11.5443 14.2695 11.8188C14.1686 12.0934 14.1228 12.3852 14.1347 12.6774C14.1466 12.9697 14.2161 13.2568 14.339 13.5222L14.4014 13.6424H12.0272L13.6664 14.6932C13.1499 15.0358 12.7529 15.5307 12.5305 16.1091H8.12068V23.8742L6.51709 25.477L8.12068 27.0799L8.56612 34.8673H12.731L12.2855 26.6258C12.2899 26.5985 12.2888 26.5706 12.2821 26.5438C12.2755 26.517 12.2634 26.4918 12.2468 26.4698C12.2302 26.4478 12.2092 26.4293 12.1853 26.4156C12.1613 26.4018 12.1348 26.393 12.1074 26.3898C12.0531 26.3821 11.998 26.396 11.9539 26.4284C11.9097 26.4609 11.8801 26.5094 11.8713 26.5634C11.8668 26.584 11.8668 26.6052 11.8713 26.6258V32.9483H10.0049V26.5634L8.9091 25.477L10.0004 24.3906V18.0058H12.0762C12.0272 18.4881 12.0182 18.9736 12.0495 19.4573H13.515C13.5965 18.568 14.0215 17.7455 14.6998 17.1643C17.1943 14.0832 27.7557 15.882 27.7557 15.882L28.9272 14.1544L28.4818 15.882C30.9673 16.4742 31.1811 19.4039 31.1811 19.4039H32.2947C32.6295 18.9837 32.8929 18.5114 33.0742 18.0058H34.4551V24.3906L35.5464 25.477L34.4551 26.5634V32.9483H32.1745L32.6199 34.8673H36.7848L36.3393 27.0799L37.9429 25.477L36.3393 23.8742Z" fill="white"/>
<path d="M57.7549 30.7623V14.7623H61.6221V27.6216H68.2783V30.7623H57.7549ZM72.9131 30.7623L68.2568 14.7623H72.5303L74.9443 25.2466H75.0771L77.835 14.7623H81.3193L84.0771 25.2701H84.21L86.6318 14.7623H90.8975L86.249 30.7623H82.5225L79.6396 21.0591H79.5146L76.6318 30.7623H72.9131ZM100.95 19.5591C100.898 18.9862 100.666 18.5409 100.255 18.2232C99.8486 17.9003 99.2679 17.7388 98.5127 17.7388C98.0127 17.7388 97.596 17.8039 97.2627 17.9341C96.9294 18.0644 96.6794 18.244 96.5127 18.4732C96.346 18.6972 96.2601 18.955 96.2549 19.2466C96.2445 19.4862 96.2913 19.6972 96.3955 19.8795C96.5049 20.0617 96.6611 20.2232 96.8643 20.3638C97.0726 20.4992 97.3226 20.619 97.6143 20.7232C97.9059 20.8274 98.234 20.9185 98.5986 20.9966L99.9736 21.3091C100.765 21.481 101.463 21.7102 102.067 21.9966C102.677 22.2831 103.187 22.6242 103.599 23.0201C104.015 23.4159 104.33 23.8716 104.544 24.3873C104.757 24.9029 104.867 25.481 104.872 26.1216C104.867 27.1321 104.612 27.9992 104.106 28.7232C103.601 29.4472 102.875 30.0019 101.927 30.3873C100.984 30.7727 99.846 30.9654 98.5127 30.9654C97.1742 30.9654 96.0075 30.7649 95.0127 30.3638C94.0179 29.9628 93.2445 29.3534 92.6924 28.5357C92.1403 27.718 91.8564 26.6841 91.8408 25.4341H95.5439C95.5752 25.9498 95.7132 26.3795 95.958 26.7232C96.2028 27.067 96.5387 27.3274 96.9658 27.5045C97.3981 27.6815 97.8981 27.7701 98.4658 27.7701C98.9867 27.7701 99.4294 27.6998 99.7939 27.5591C100.164 27.4185 100.448 27.2232 100.646 26.9732C100.843 26.7232 100.945 26.4367 100.95 26.1138C100.945 25.8117 100.851 25.5539 100.669 25.3404C100.487 25.1216 100.205 24.9341 99.8252 24.7779C99.4502 24.6164 98.971 24.468 98.3877 24.3326L96.7158 23.942C95.3304 23.6242 94.2393 23.1112 93.4424 22.4029C92.6455 21.6894 92.2497 20.7258 92.2549 19.5123C92.2497 18.5227 92.5153 17.6555 93.0518 16.9107C93.5882 16.1659 94.3304 15.5852 95.2783 15.1685C96.2262 14.7519 97.307 14.5435 98.5205 14.5435C99.7601 14.5435 100.836 14.7545 101.747 15.1763C102.664 15.593 103.375 16.1789 103.88 16.9341C104.385 17.6894 104.643 18.5644 104.653 19.5591H100.95ZM118.403 14.7623H120.341V26.1998C120.341 27.2206 120.153 28.0878 119.778 28.8013C119.403 29.5149 118.875 30.0565 118.192 30.4263C117.51 30.7961 116.705 30.981 115.778 30.981C114.903 30.981 114.125 30.8222 113.442 30.5045C112.76 30.1815 112.224 29.7232 111.833 29.1295C111.442 28.5357 111.247 27.83 111.247 27.0123H113.153C113.153 27.4654 113.265 27.8612 113.489 28.1998C113.718 28.5331 114.031 28.7935 114.427 28.981C114.823 29.1685 115.273 29.2623 115.778 29.2623C116.336 29.2623 116.81 29.1451 117.2 28.9107C117.591 28.6763 117.888 28.3326 118.091 27.8795C118.299 27.4211 118.403 26.8612 118.403 26.1998V14.7623ZM128.849 31.0123C127.765 31.0123 126.815 30.7545 125.997 30.2388C125.185 29.7232 124.549 29.0019 124.091 28.0748C123.638 27.1477 123.411 26.0644 123.411 24.8248C123.411 23.5748 123.638 22.4836 124.091 21.5513C124.549 20.619 125.185 19.8951 125.997 19.3795C126.815 18.8638 127.765 18.606 128.849 18.606C129.932 18.606 130.88 18.8638 131.692 19.3795C132.51 19.8951 133.146 20.619 133.599 21.5513C134.057 22.4836 134.286 23.5748 134.286 24.8248C134.286 26.0644 134.057 27.1477 133.599 28.0748C133.146 29.0019 132.51 29.7232 131.692 30.2388C130.88 30.7545 129.932 31.0123 128.849 31.0123ZM128.849 29.356C129.672 29.356 130.349 29.1451 130.88 28.7232C131.411 28.3013 131.804 27.7466 132.06 27.0591C132.315 26.3716 132.442 25.6269 132.442 24.8248C132.442 24.0227 132.315 23.2753 132.06 22.5826C131.804 21.8899 131.411 21.33 130.88 20.9029C130.349 20.4758 129.672 20.2623 128.849 20.2623C128.026 20.2623 127.349 20.4758 126.817 20.9029C126.286 21.33 125.893 21.8899 125.638 22.5826C125.382 23.2753 125.255 24.0227 125.255 24.8248C125.255 25.6269 125.382 26.3716 125.638 27.0591C125.893 27.7466 126.286 28.3013 126.817 28.7232C127.349 29.1451 128.026 29.356 128.849 29.356ZM137.351 30.7623V14.7623H139.194V20.6685H139.351C139.486 20.4602 139.674 20.1946 139.913 19.8716C140.158 19.5435 140.507 19.2519 140.96 18.9966C141.418 18.7362 142.038 18.606 142.819 18.606C143.83 18.606 144.72 18.8586 145.491 19.3638C146.262 19.869 146.864 20.5852 147.296 21.5123C147.728 22.4394 147.944 23.5331 147.944 24.7935C147.944 26.0644 147.728 27.1659 147.296 28.0982C146.864 29.0253 146.265 29.744 145.499 30.2545C144.733 30.7597 143.851 31.0123 142.851 31.0123C142.08 31.0123 141.463 30.8847 140.999 30.6295C140.535 30.369 140.179 30.0748 139.929 29.7466C139.679 29.4133 139.486 29.1373 139.351 28.9185H139.132V30.7623H137.351ZM139.163 24.7623C139.163 25.6685 139.296 26.468 139.562 27.1607C139.827 27.8482 140.215 28.3873 140.726 28.7779C141.236 29.1633 141.861 29.356 142.601 29.356C143.371 29.356 144.015 29.1529 144.53 28.7466C145.051 28.3352 145.442 27.7831 145.702 27.0904C145.968 26.3925 146.101 25.6164 146.101 24.7623C146.101 23.9185 145.97 23.1581 145.71 22.481C145.455 21.7987 145.067 21.2597 144.546 20.8638C144.03 20.4628 143.382 20.2623 142.601 20.2623C141.851 20.2623 141.22 20.4524 140.71 20.8326C140.2 21.2076 139.814 21.7336 139.554 22.4107C139.293 23.0826 139.163 23.8664 139.163 24.7623ZM157.202 30.7623V14.7623H166.796V16.481H159.14V21.8873H166.077V23.606H159.14V30.7623H157.202ZM169.864 30.7623V18.7623H171.708V30.7623H169.864ZM170.802 16.7623C170.442 16.7623 170.132 16.6399 169.872 16.3951C169.617 16.1503 169.489 15.856 169.489 15.5123C169.489 15.1685 169.617 14.8742 169.872 14.6295C170.132 14.3847 170.442 14.2623 170.802 14.2623C171.161 14.2623 171.468 14.3847 171.724 14.6295C171.984 14.8742 172.114 15.1685 172.114 15.5123C172.114 15.856 171.984 16.1503 171.724 16.3951C171.468 16.6399 171.161 16.7623 170.802 16.7623ZM176.929 23.5435V30.7623H175.085V18.7623H176.866V20.6373H177.022C177.304 20.0279 177.731 19.5383 178.304 19.1685C178.877 18.7935 179.616 18.606 180.522 18.606C181.335 18.606 182.046 18.7727 182.655 19.106C183.265 19.4341 183.739 19.9341 184.077 20.606C184.416 21.2727 184.585 22.1164 184.585 23.1373V30.7623H182.741V23.2623C182.741 22.3196 182.496 21.5852 182.007 21.0591C181.517 20.5279 180.845 20.2623 179.991 20.2623C179.403 20.2623 178.877 20.3899 178.413 20.6451C177.955 20.9003 177.593 21.2727 177.327 21.7623C177.062 22.2519 176.929 22.8456 176.929 23.5435ZM192.485 31.0123C191.485 31.0123 190.603 30.7597 189.837 30.2545C189.071 29.744 188.472 29.0253 188.04 28.0982C187.608 27.1659 187.392 26.0644 187.392 24.7935C187.392 23.5331 187.608 22.4394 188.04 21.5123C188.472 20.5852 189.074 19.869 189.845 19.3638C190.616 18.8586 191.506 18.606 192.517 18.606C193.298 18.606 193.915 18.7362 194.368 18.9966C194.826 19.2519 195.175 19.5435 195.415 19.8716C195.66 20.1946 195.85 20.4602 195.985 20.6685H196.142V14.7623H197.985V30.7623H196.204V28.9185H195.985C195.85 29.1373 195.657 29.4133 195.407 29.7466C195.157 30.0748 194.8 30.369 194.337 30.6295C193.873 30.8847 193.256 31.0123 192.485 31.0123ZM192.735 29.356C193.475 29.356 194.1 29.1633 194.61 28.7779C195.121 28.3873 195.509 27.8482 195.774 27.1607C196.04 26.468 196.173 25.6685 196.173 24.7623C196.173 23.8664 196.043 23.0826 195.782 22.4107C195.522 21.7336 195.136 21.2076 194.626 20.8326C194.116 20.4524 193.485 20.2623 192.735 20.2623C191.954 20.2623 191.303 20.4628 190.782 20.8638C190.267 21.2597 189.879 21.7987 189.618 22.481C189.363 23.1581 189.235 23.9185 189.235 24.7623C189.235 25.6164 189.366 26.3925 189.626 27.0904C189.892 27.7831 190.282 28.3352 190.798 28.7466C191.319 29.1529 191.965 29.356 192.735 29.356ZM206.649 31.0123C205.493 31.0123 204.496 30.7571 203.657 30.2466C202.824 29.731 202.181 29.0123 201.728 28.0904C201.28 27.1633 201.056 26.0852 201.056 24.856C201.056 23.6269 201.28 22.5435 201.728 21.606C202.181 20.6633 202.811 19.9289 203.618 19.4029C204.431 18.8716 205.379 18.606 206.462 18.606C207.087 18.606 207.704 18.7102 208.313 18.9185C208.923 19.1269 209.478 19.4654 209.978 19.9341C210.478 20.3977 210.876 21.0123 211.173 21.7779C211.47 22.5435 211.618 23.4862 211.618 24.606V25.3873H202.368V23.7935H209.743C209.743 23.1164 209.608 22.5123 209.337 21.981C209.071 21.4498 208.691 21.0305 208.196 20.7232C207.707 20.4159 207.129 20.2623 206.462 20.2623C205.728 20.2623 205.092 20.4446 204.556 20.8091C204.024 21.1685 203.616 21.6373 203.329 22.2154C203.043 22.7935 202.899 23.4133 202.899 24.0748V25.1373C202.899 26.0435 203.056 26.8117 203.368 27.442C203.686 28.067 204.126 28.5435 204.688 28.8716C205.251 29.1946 205.905 29.356 206.649 29.356C207.134 29.356 207.571 29.2883 207.962 29.1529C208.358 29.0123 208.699 28.8039 208.985 28.5279C209.272 28.2466 209.493 27.8977 209.649 27.481L211.431 27.981C211.243 28.5852 210.928 29.1164 210.485 29.5748C210.043 30.0279 209.496 30.3821 208.845 30.6373C208.194 30.8873 207.462 31.0123 206.649 31.0123ZM214.423 30.7623V18.7623H216.204V20.5748H216.329C216.548 19.981 216.944 19.4992 217.517 19.1295C218.09 18.7597 218.735 18.5748 219.454 18.5748C219.59 18.5748 219.759 18.5774 219.962 18.5826C220.165 18.5878 220.319 18.5956 220.423 18.606V20.481C220.36 20.4654 220.217 20.442 219.993 20.4107C219.774 20.3742 219.543 20.356 219.298 20.356C218.715 20.356 218.194 20.4784 217.735 20.7232C217.282 20.9628 216.923 21.2961 216.657 21.7232C216.397 22.1451 216.267 22.6269 216.267 23.1685V30.7623H214.423Z" fill="white"/>
</svg>
