<svg width="1586" height="512" viewBox="0 0 1586 512" fill="none" xmlns="http://www.w3.org/2000/svg">
<g clip-path="url(#clip0_850_283)">
<path d="M256.112 501.76C391.901 501.76 501.98 391.73 501.98 256C501.98 120.27 391.901 10.24 256.112 10.24C120.323 10.24 10.2445 120.27 10.2445 256C10.2445 391.73 120.323 501.76 256.112 501.76Z" fill="#171C2A"/>
<path d="M256.112 512C205.458 512 155.941 496.986 113.824 468.856C71.7064 440.727 38.8799 400.745 19.4954 353.967C0.110847 307.189 -4.96103 255.716 4.92112 206.057C14.8033 156.398 39.1956 110.783 75.0135 74.9807C110.831 39.1784 156.466 14.7968 206.147 4.91896C255.828 -4.95886 307.324 0.110798 354.122 19.4868C400.92 38.8629 440.92 71.675 469.062 113.774C497.204 155.873 512.224 205.368 512.224 256C512.143 323.87 485.134 388.938 437.121 436.93C389.108 484.921 324.012 511.919 256.112 512ZM256.112 20.48C209.51 20.48 163.955 34.293 125.207 60.1723C86.4589 86.0515 56.2585 122.835 38.4247 165.87C20.591 208.906 15.9248 256.261 25.0164 301.948C34.108 347.634 56.5489 389.6 89.5014 422.538C122.454 455.476 164.438 477.907 210.144 486.995C255.851 496.082 303.227 491.418 346.281 473.592C389.336 455.766 426.135 425.579 452.026 386.848C477.916 348.117 491.735 302.581 491.735 256C491.654 193.561 466.803 133.703 422.633 89.552C378.463 45.401 318.578 20.5613 256.112 20.48Z" fill="#00D991"/>
<path d="M195.531 275.203L194.047 276.688C193.287 277.448 193.288 278.68 194.049 279.44L216.34 301.689C217.1 302.449 218.333 302.448 219.092 301.687L220.576 300.202C221.336 299.442 221.335 298.21 220.574 297.451L198.284 275.201C197.523 274.441 196.291 274.442 195.531 275.203Z" fill="white"/>
<path d="M196.019 263.772L194.534 265.257C193.774 266.017 193.774 267.248 194.534 268.008L212.933 286.4C213.693 287.16 214.926 287.16 215.686 286.4L217.171 284.915C217.931 284.156 217.931 282.924 217.171 282.164L198.771 263.772C198.011 263.013 196.779 263.013 196.019 263.772Z" fill="white"/>
<path d="M321.428 275.261L319.944 276.746C319.185 277.506 319.186 278.738 319.946 279.498L342.237 301.747C342.998 302.507 344.23 302.506 344.99 301.745L346.474 300.26C347.233 299.5 347.232 298.268 346.472 297.509L324.181 275.259C323.42 274.499 322.188 274.5 321.428 275.261Z" fill="white"/>
<path d="M321.76 263.782L320.274 265.266C319.513 266.025 319.512 267.257 320.272 268.017L338.655 286.425C339.415 287.185 340.647 287.186 341.408 286.427L342.894 284.944C343.655 284.185 343.656 282.953 342.897 282.192L324.513 263.785C323.754 263.024 322.521 263.023 321.76 263.782Z" fill="white"/>
<path fill-rule="evenodd" clip-rule="evenodd" d="M373.924 289.024H368.801C367.348 276.902 361.536 265.721 352.448 257.564C343.36 249.407 331.615 244.831 319.402 244.687C307.188 244.543 295.339 248.841 286.061 256.781C276.783 264.721 270.708 275.762 268.969 287.846C266.254 288.461 255.651 289.024 255.651 289.024C255.651 289.024 245.407 288.512 242.897 287.949C241.169 275.863 235.106 264.818 225.836 256.869C216.566 248.92 204.722 244.61 192.509 244.742C180.296 244.873 168.548 249.437 159.451 257.584C150.355 265.731 144.531 276.904 143.064 289.024H137.327C136.295 289.024 135.305 289.434 134.575 290.164C133.845 290.893 133.434 291.883 133.434 292.915V296.96C133.448 297.974 133.857 298.943 134.574 299.661C135.292 300.378 136.261 300.787 137.276 300.8H142.808C144.248 312.925 150.048 324.113 159.128 332.28C168.208 340.447 179.949 345.036 192.163 345.193C204.377 345.349 216.231 341.062 225.518 333.131C234.805 325.199 240.89 314.164 242.641 302.08C245.458 301.517 255.395 300.954 255.395 300.954C255.395 300.954 265.947 301.619 268.713 302.182C270.218 314.483 276.21 325.796 285.541 333.955C294.873 342.114 306.888 346.545 319.285 346.399C331.682 346.253 343.589 341.541 352.726 333.165C361.863 324.789 367.587 313.337 368.801 301.005H373.924C374.939 301.005 375.914 300.609 376.641 299.902C377.368 299.194 377.79 298.23 377.817 297.216V292.966C377.817 291.934 377.406 290.945 376.676 290.215C375.946 289.485 374.956 289.075 373.924 289.075V289.024ZM192.801 333.363C185.213 333.363 177.796 331.114 171.486 326.9C165.177 322.686 160.26 316.697 157.356 309.69C154.452 302.683 153.692 294.972 155.173 287.533C156.653 280.094 160.307 273.261 165.673 267.898C171.038 262.535 177.874 258.882 185.316 257.402C192.759 255.923 200.473 256.682 207.483 259.585C214.494 262.487 220.485 267.403 224.701 273.709C228.917 280.015 231.167 287.43 231.167 295.014C231.167 305.185 227.125 314.939 219.93 322.131C212.735 329.323 202.976 333.363 192.801 333.363ZM318.552 333.363C310.964 333.363 303.547 331.114 297.238 326.9C290.928 322.686 286.011 316.697 283.107 309.69C280.203 302.683 279.444 294.972 280.924 287.533C282.404 280.094 286.058 273.261 291.424 267.898C296.789 262.535 303.625 258.882 311.068 257.402C318.51 255.923 326.224 256.682 333.234 259.585C340.245 262.487 346.236 267.403 350.452 273.709C354.668 280.015 356.918 287.43 356.918 295.014C356.918 305.185 352.876 314.939 345.681 322.131C338.486 329.323 328.727 333.363 318.552 333.363Z" fill="white"/>
<path d="M417.873 274.534V184.986H386.371C388.213 175.143 389.394 165.188 389.905 155.187L371.363 168.96C381.607 157.133 371.363 101.99 371.363 101.99C371.363 101.99 357.84 128.512 273.528 121.754C189.216 114.995 177.383 148.48 177.383 148.48C167.139 138.24 177.383 121.498 177.383 121.498C174.328 122.908 171.582 124.907 169.3 127.38C167.018 129.852 165.246 132.75 164.086 135.907C162.925 139.064 162.398 142.419 162.535 145.78C162.672 149.141 163.471 152.442 164.885 155.494L165.602 156.877H138.301L157.15 168.96C151.21 172.9 146.645 178.59 144.089 185.242H93.3785V274.534L74.9384 292.966L93.3785 311.398L98.5007 400.947H146.394L141.271 306.176C141.322 305.862 141.309 305.542 141.232 305.234C141.155 304.925 141.017 304.636 140.826 304.382C140.635 304.129 140.394 303.917 140.118 303.759C139.843 303.601 139.538 303.5 139.223 303.462C138.599 303.374 137.965 303.533 137.457 303.907C136.95 304.28 136.609 304.837 136.508 305.459C136.456 305.695 136.456 305.94 136.508 306.176V378.88H115.046V305.459L102.445 292.966L114.994 280.474V207.053H138.864C138.3 212.598 138.198 218.181 138.557 223.744H155.409C156.346 213.518 161.234 204.059 169.034 197.376C197.719 161.946 319.167 182.63 319.167 182.63L332.638 162.765L327.516 182.63C356.098 189.44 358.557 223.13 358.557 223.13H371.363C375.212 218.298 378.241 212.867 380.327 207.053H396.205V280.474L408.755 292.966L396.205 305.459V378.88H369.98L375.102 400.947H422.995L417.873 311.398L436.313 292.966L417.873 274.534Z" fill="white"/>
<path d="M662.408 193.434H703.642V213.299H637.053V88.2176H662.152L662.408 193.434Z" fill="#1F222E"/>
<path d="M811.21 171.213H738.576C738.834 177.585 741.529 183.615 746.106 188.058C750.556 192.13 756.415 194.315 762.446 194.15C766.588 194.392 770.705 193.371 774.254 191.223C777.803 189.074 780.616 185.899 782.32 182.118H809.314C806.523 191.552 800.733 199.82 792.821 205.67C784.263 211.987 773.849 215.283 763.214 215.04C754.266 215.161 745.441 212.956 737.603 208.64C730.076 204.479 723.905 198.24 719.829 190.669C715.351 182.44 713.041 173.207 713.119 163.84C712.921 154.427 715.087 145.115 719.419 136.755C723.391 129.189 729.501 122.957 736.988 118.835C745.04 114.52 754.081 112.384 763.214 112.64C772.133 112.434 780.955 114.533 788.825 118.733C796.189 122.664 802.242 128.662 806.241 135.987C810.438 143.86 812.57 152.667 812.439 161.587C812.284 164.823 811.873 168.042 811.21 171.213ZM785.906 154.368C785.936 151.455 785.328 148.57 784.124 145.917C782.921 143.263 781.151 140.905 778.939 139.008C774.286 135.062 768.342 132.966 762.241 133.12C756.494 132.964 750.899 134.974 746.567 138.752C742.137 142.865 739.368 148.456 738.781 154.47L785.906 154.368Z" fill="#1F222E"/>
<path d="M829.803 136.602C833.446 129.221 839.09 123.012 846.092 118.682C853.036 114.477 861.024 112.313 869.142 112.435C875.898 112.293 882.585 113.823 888.607 116.89C893.844 119.608 898.397 123.476 901.924 128.205V114.022H927.126V213.299H901.822V198.81C898.368 203.659 893.801 207.609 888.504 210.33C882.435 213.482 875.673 215.066 868.835 214.938C860.759 215.016 852.83 212.777 845.99 208.486C839.025 204.008 833.425 197.703 829.803 190.259C825.662 181.895 823.589 172.659 823.759 163.328C823.6 154.064 825.673 144.897 829.803 136.602ZM898.339 147.968C896.159 143.699 892.799 140.145 888.658 137.728C884.688 135.435 880.181 134.234 875.596 134.246C870.985 134.209 866.451 135.435 862.487 137.791C858.523 140.146 855.28 143.542 853.11 147.61C850.575 152.326 849.305 157.617 849.421 162.97C849.304 168.42 850.573 173.811 853.11 178.637C855.337 182.872 858.686 186.415 862.791 188.877C866.643 191.237 871.077 192.478 875.596 192.461C880.181 192.473 884.688 191.272 888.658 188.979C892.799 186.563 896.159 183.008 898.339 178.739C900.852 173.908 902.087 168.515 901.924 163.072C901.961 157.816 900.713 152.631 898.288 147.968H898.339Z" fill="#1F222E"/>
<path d="M989.464 117.094C994.896 114.028 1001.05 112.473 1007.29 112.589V138.957H1000.68C994.255 138.493 987.89 140.468 982.856 144.486C978.809 148.173 976.863 154.726 976.863 163.84V213.299H951.713V114.022H976.863V129.382C979.934 124.27 984.274 120.037 989.464 117.094Z" fill="#1F222E"/>
<path d="M1107.89 123.802C1111.69 128.033 1114.61 132.978 1116.49 138.348C1118.36 143.719 1119.15 149.408 1118.8 155.085V213.299H1093.7V158.72C1094.16 152.129 1092.05 145.616 1087.81 140.544C1085.73 138.393 1083.22 136.713 1080.43 135.618C1077.65 134.523 1074.66 134.037 1071.68 134.195C1068.65 133.986 1065.62 134.421 1062.77 135.471C1059.93 136.521 1057.34 138.163 1055.18 140.288C1053.03 142.82 1051.4 145.75 1050.38 148.913C1049.36 152.076 1048.97 155.408 1049.24 158.72V213.299H1024.14V114.022H1049.24V126.413C1052.65 122.027 1057.06 118.517 1062.1 116.173C1067.45 113.679 1073.3 112.419 1079.21 112.486C1084.51 112.277 1089.8 113.175 1094.74 115.123C1099.68 117.071 1104.16 120.027 1107.89 123.802Z" fill="#1F222E"/>
<path d="M774.944 308.582L745.901 407.859H718.856L700.723 338.534L682.641 407.859H655.647L626.45 308.582H652.062L669.17 384L688.225 308.378H714.758L733.352 384L750.972 308.582H774.944Z" fill="#1F222E"/>
<path d="M790.311 292.557C788.914 291.189 787.804 289.556 787.046 287.753C786.289 285.951 785.898 284.016 785.898 282.061C785.898 280.106 786.289 278.171 787.046 276.368C787.804 274.566 788.914 272.933 790.311 271.565C793.342 268.862 797.262 267.369 801.324 267.369C805.385 267.369 809.305 268.862 812.336 271.565C813.733 272.933 814.843 274.566 815.601 276.368C816.359 278.171 816.749 280.106 816.749 282.061C816.749 284.016 816.359 285.951 815.601 287.753C814.843 289.556 813.733 291.189 812.336 292.557C809.305 295.259 805.385 296.753 801.324 296.753C797.262 296.753 793.342 295.259 790.311 292.557ZM813.719 308.582V407.859H788.825V308.582H813.719Z" fill="#1F222E"/>
<path d="M867.657 329.165V377.19C867.536 378.503 867.687 379.826 868.102 381.077C868.516 382.328 869.184 383.48 870.064 384.461C872.415 386.175 875.31 386.976 878.209 386.714H889.887V407.859H874.111C852.973 407.859 842.387 397.619 842.353 377.139V329.165H830.52V308.685H842.353V284.058H867.657V308.582H889.887V329.062L867.657 329.165Z" fill="#1F222E"/>
<path d="M983.983 312.32C989.925 315.667 994.712 320.737 997.71 326.861C1001.23 334.022 1002.99 341.922 1002.83 349.901V407.859H977.734V353.28C978.19 346.689 976.08 340.176 971.843 335.104C969.765 332.953 967.249 331.273 964.465 330.178C961.682 329.083 958.695 328.597 955.708 328.755C952.682 328.594 949.656 329.076 946.831 330.171C944.005 331.265 941.444 332.947 939.317 335.104C934.941 340.113 932.714 346.642 933.119 353.28V407.859H907.969V275.251H933.119V320.973C936.448 316.507 940.878 312.979 945.976 310.733C951.615 308.222 957.731 306.964 963.904 307.046C970.942 307.024 977.864 308.842 983.983 312.32Z" fill="#1F222E"/>
<path d="M1088.78 404.48C1082.17 401.787 1076.43 397.322 1072.19 391.578C1068.07 385.758 1065.88 378.79 1065.94 371.661H1092.83C1092.86 373.982 1093.36 376.273 1094.3 378.394C1095.24 380.515 1096.61 382.423 1098.31 384C1102.07 387.185 1106.91 388.798 1111.83 388.506C1116.78 388.819 1121.68 387.328 1125.61 384.307C1127.26 382.993 1128.58 381.315 1129.47 379.405C1130.36 377.495 1130.79 375.405 1130.74 373.299C1130.86 369.918 1129.65 366.623 1127.35 364.134C1124.95 361.675 1122.05 359.755 1118.85 358.502C1114.24 356.724 1109.54 355.186 1104.77 353.894C1097.99 352.034 1091.37 349.672 1084.94 346.829C1079.78 344.447 1075.3 340.823 1071.88 336.282C1067.94 330.813 1065.97 324.171 1066.3 317.44C1066.13 310.577 1068.06 303.827 1071.83 298.086C1075.7 292.444 1081.13 288.05 1087.45 285.44C1094.71 282.397 1102.53 280.898 1110.4 281.037C1121.65 280.512 1132.74 283.835 1141.85 290.458C1145.87 293.585 1149.16 297.56 1151.47 302.1C1153.78 306.639 1155.06 311.632 1155.22 316.723H1127.61C1127.52 314.65 1126.99 312.62 1126.04 310.773C1125.1 308.926 1123.76 307.305 1122.13 306.022C1118.26 303.061 1113.47 301.573 1108.61 301.824C1104.37 301.61 1100.19 302.958 1096.88 305.613C1095.37 306.979 1094.18 308.67 1093.42 310.559C1092.66 312.448 1092.33 314.486 1092.47 316.518C1092.42 318.064 1092.69 319.603 1093.26 321.039C1093.84 322.475 1094.7 323.778 1095.8 324.864C1098.19 327.092 1100.99 328.831 1104.05 329.984C1108.59 331.808 1113.22 333.397 1117.93 334.746C1124.73 336.63 1131.37 339.026 1137.8 341.914C1143.05 344.336 1147.61 348.032 1151.07 352.666C1155.02 358.111 1156.99 364.74 1156.65 371.456C1156.72 378.024 1154.94 384.479 1151.53 390.093C1147.82 396.035 1142.49 400.795 1136.16 403.814C1128.72 407.376 1120.54 409.13 1112.29 408.934C1104.24 409.047 1096.24 407.532 1088.78 404.48Z" fill="#1F222E"/>
<path d="M1272.11 308.582V407.859H1246.81V395.315C1243.51 399.716 1239.19 403.234 1234.2 405.555C1228.9 408.033 1223.11 409.293 1217.25 409.242C1210.1 409.294 1203.05 407.532 1196.76 404.122C1190.75 400.794 1185.86 395.749 1182.73 389.632C1179.15 382.563 1177.39 374.716 1177.6 366.797V308.582H1202.7V363.52C1202.25 370.111 1204.36 376.624 1208.59 381.696C1210.67 383.847 1213.19 385.527 1215.97 386.622C1218.75 387.717 1221.74 388.203 1224.73 388.045C1227.75 388.215 1230.77 387.737 1233.59 386.642C1236.41 385.547 1238.96 383.86 1241.07 381.696C1245.25 376.601 1247.3 370.091 1246.81 363.52V308.582H1272.11Z" fill="#1F222E"/>
<path d="M1449.59 318.362C1453.47 322.556 1456.45 327.489 1458.37 332.865C1460.29 338.24 1461.1 343.948 1460.76 349.645V407.859H1435.66V353.28C1436.12 346.797 1434.01 340.395 1429.77 335.462C1427.7 333.322 1425.2 331.642 1422.44 330.53C1419.68 329.419 1416.71 328.901 1413.74 329.011C1410.75 328.858 1407.76 329.33 1404.97 330.397C1402.17 331.464 1399.63 333.102 1397.5 335.206C1395.35 337.668 1393.71 340.534 1392.68 343.638C1391.65 346.742 1391.25 350.02 1391.51 353.28V407.859H1366.41V353.28C1366.85 346.791 1364.72 340.389 1360.47 335.462C1358.36 333.355 1355.84 331.714 1353.06 330.647C1350.28 329.58 1347.31 329.109 1344.33 329.267C1341.32 329.105 1338.31 329.572 1335.48 330.639C1332.66 331.706 1330.09 333.348 1327.94 335.462C1325.82 337.892 1324.2 340.717 1323.17 343.774C1322.14 346.832 1321.73 350.062 1321.95 353.28V407.859H1296.85V308.582H1321.95V320.614C1325.24 316.37 1329.51 312.981 1334.4 310.733C1339.64 308.297 1345.36 307.072 1351.15 307.149C1358.4 307.083 1365.55 308.844 1371.94 312.269C1377.96 315.458 1382.9 320.358 1386.13 326.349C1389.39 320.425 1394.28 315.557 1400.22 312.32C1408.06 308.077 1417.02 306.379 1425.87 307.462C1434.72 308.544 1443.01 312.354 1449.59 318.362Z" fill="#1F222E"/>
<path d="M1486.42 292.557C1485.03 291.189 1483.92 289.556 1483.16 287.753C1482.4 285.951 1482.01 284.016 1482.01 282.061C1482.01 280.106 1482.4 278.171 1483.16 276.368C1483.92 274.566 1485.03 272.933 1486.42 271.565C1489.46 268.859 1493.39 267.363 1497.46 267.363C1501.53 267.363 1505.46 268.859 1508.5 271.565C1511.28 274.349 1512.85 278.124 1512.85 282.061C1512.85 285.997 1511.28 289.772 1508.5 292.557C1505.46 295.263 1501.53 296.758 1497.46 296.758C1493.39 296.758 1489.46 295.263 1486.42 292.557ZM1509.83 308.582V407.859H1484.73V308.582H1509.83Z" fill="#1F222E"/>
<path d="M1563.77 329.165V377.19C1563.64 378.507 1563.8 379.836 1564.22 381.089C1564.64 382.342 1565.33 383.491 1566.23 384.461C1568.57 386.188 1571.47 386.99 1574.37 386.714H1586V407.859H1570.22C1549.09 407.859 1538.52 397.619 1538.52 377.139V329.165H1526.68V308.685H1538.52V284.058H1563.77V308.582H1586V329.062L1563.77 329.165Z" fill="#1F222E"/>
</g>
<defs>
<clipPath id="clip0_850_283">
<rect width="1586" height="512" fill="white"/>
</clipPath>
</defs>
</svg>
