<svg width="154" height="45" viewBox="0 0 154 45" fill="none" xmlns="http://www.w3.org/2000/svg">
<path d="M23.0001 43.6341C34.8085 43.6341 44.3812 34.0657 44.3812 22.2623C44.3812 10.459 34.8085 0.890564 23.0001 0.890564C11.1916 0.890564 1.61892 10.459 1.61892 22.2623C1.61892 34.0657 11.1916 43.6341 23.0001 43.6341Z" fill="#171C2A"/>
<path d="M23 44.5246C18.595 44.5246 14.2889 43.2189 10.6263 40.7727C6.96371 38.3265 4.10905 34.8496 2.42333 30.7817C0.737616 26.7138 0.296556 22.2376 1.15593 17.9191C2.0153 13.6007 4.1365 9.63391 7.2513 6.52048C10.3661 3.40704 14.3346 1.28677 18.6549 0.427773C22.9753 -0.431221 27.4535 0.00964586 31.5231 1.69462C35.5928 3.3796 39.0712 6.23302 41.5185 9.89403C43.9658 13.555 45.272 17.8592 45.272 22.2623C45.265 28.1644 42.9162 33.8228 38.7409 37.9963C34.5656 42.1697 28.9047 44.5175 23 44.5246V44.5246ZM23 1.78099C18.9474 1.78099 14.9858 2.9822 11.6162 5.23271C8.24662 7.48322 5.62033 10.682 4.06947 14.4244C2.51861 18.1669 2.11283 22.285 2.90345 26.258C3.69407 30.231 5.64558 33.8804 8.5112 36.7447C11.3768 39.6091 15.0278 41.5598 19.0026 42.35C22.9773 43.1403 27.0972 42.7347 30.8413 41.1845C34.5854 39.6343 37.7855 37.0092 40.037 33.6411C42.2885 30.2729 43.4903 26.3131 43.4903 22.2623C43.4832 16.8325 41.3221 11.6271 37.481 7.78763C33.6399 3.94817 28.4322 1.78806 23 1.78099V1.78099Z" fill="#00D991"/>
<path d="M17.7318 23.9323L17.6028 24.0614C17.5367 24.1276 17.5368 24.2347 17.6029 24.3007L19.5414 26.2356C19.6075 26.3016 19.7147 26.3015 19.7807 26.2354L19.9098 26.1063C19.9758 26.0401 19.9758 25.933 19.9096 25.867L17.9712 23.9321C17.905 23.8661 17.7979 23.8661 17.7318 23.9323Z" fill="white"/>
<path d="M17.7742 22.9383L17.6451 23.0673C17.579 23.1334 17.579 23.2405 17.6451 23.3066L19.2451 24.906C19.3112 24.9721 19.4184 24.9721 19.4845 24.906L19.6137 24.7769C19.6798 24.7108 19.6798 24.6037 19.6137 24.5376L18.0136 22.9383C17.9475 22.8722 17.8403 22.8722 17.7742 22.9383Z" fill="white"/>
<path d="M28.6801 23.9373L28.551 24.0665C28.485 24.1326 28.4851 24.2397 28.5512 24.3058L30.4896 26.2407C30.5558 26.3067 30.663 26.3066 30.729 26.2405L30.8581 26.1113C30.9241 26.0452 30.9241 25.9381 30.8579 25.872L28.9195 23.9372C28.8533 23.8711 28.7461 23.8712 28.6801 23.9373Z" fill="white"/>
<path d="M28.709 22.9391L28.5797 23.0681C28.5135 23.1341 28.5135 23.2413 28.5795 23.3074L30.1782 24.9082C30.2442 24.9743 30.3514 24.9744 30.4176 24.9084L30.5468 24.7794C30.613 24.7134 30.6131 24.6063 30.547 24.5401L28.9483 22.9394C28.8823 22.8732 28.7751 22.8731 28.709 22.9391Z" fill="white"/>
<path fill-rule="evenodd" clip-rule="evenodd" d="M33.2452 25.1342H32.7998C32.6734 24.08 32.1679 23.1077 31.3776 22.3984C30.5873 21.6891 29.5659 21.2911 28.5039 21.2785C27.4418 21.266 26.4113 21.6398 25.6045 22.3303C24.7976 23.0208 24.2694 23.9809 24.1181 25.0318C23.882 25.0852 22.96 25.1342 22.96 25.1342C22.96 25.1342 22.0691 25.0897 21.8508 25.0407C21.7006 23.9897 21.1733 23.0292 20.3672 22.3379C19.561 21.6467 18.531 21.2719 17.469 21.2833C16.407 21.2948 15.3853 21.6917 14.5942 22.4001C13.8032 23.1086 13.2967 24.0802 13.1692 25.1342H12.6703C12.5805 25.1342 12.4944 25.1698 12.4309 25.2333C12.3674 25.2968 12.3318 25.3828 12.3318 25.4726V25.8243C12.3329 25.9125 12.3685 25.9968 12.4309 26.0592C12.4933 26.1216 12.5776 26.1571 12.6658 26.1583H13.1469C13.2721 27.2126 13.7765 28.1856 14.5662 28.8958C15.3558 29.606 16.3768 30.0051 17.4389 30.0187C18.5011 30.0324 19.532 29.6596 20.3395 28.9698C21.1471 28.2801 21.6763 27.3204 21.8286 26.2696C22.0735 26.2206 22.9377 26.1716 22.9377 26.1716C22.9377 26.1716 23.8553 26.2295 24.0958 26.2785C24.2267 27.3482 24.7478 28.332 25.5593 29.0415C26.3708 29.751 27.4156 30.1363 28.4937 30.1236C29.5717 30.111 30.6072 29.7012 31.4018 28.9728C32.1963 28.2444 32.6941 27.2485 32.7998 26.1761H33.2452C33.3335 26.1761 33.4182 26.1417 33.4815 26.0801C33.5447 26.0186 33.5814 25.9348 33.5837 25.8466V25.8466V25.477C33.5837 25.3873 33.5481 25.3012 33.4846 25.2378C33.4211 25.1743 33.335 25.1386 33.2452 25.1386V25.1342ZM17.4944 28.99C16.8346 28.99 16.1895 28.7944 15.6408 28.428C15.0922 28.0615 14.6646 27.5407 14.412 26.9313C14.1595 26.322 14.0934 25.6514 14.2222 25.0045C14.3509 24.3576 14.6687 23.7634 15.1353 23.297C15.6019 22.8306 16.1963 22.513 16.8435 22.3843C17.4907 22.2556 18.1615 22.3217 18.7712 22.5741C19.3808 22.8265 19.9019 23.2539 20.2685 23.8024C20.6351 24.3508 20.8308 24.9956 20.8308 25.6551C20.8308 26.5396 20.4793 27.3878 19.8536 28.0133C19.2279 28.6387 18.3793 28.99 17.4944 28.99ZM28.43 28.99C27.7701 28.99 27.1251 28.7944 26.5764 28.428C26.0277 28.0615 25.6001 27.5407 25.3476 26.9313C25.0951 26.322 25.029 25.6514 25.1577 25.0045C25.2865 24.3576 25.6042 23.7634 26.0708 23.297C26.5374 22.8306 27.1319 22.513 27.7791 22.3843C28.4263 22.2556 29.0971 22.3217 29.7067 22.5741C30.3164 22.8265 30.8375 23.2539 31.2041 23.8024C31.5707 24.3508 31.7663 24.9956 31.7663 25.6551V25.6551C31.7663 26.5396 31.4148 27.3878 30.7891 28.0133C30.1634 28.6387 29.3148 28.99 28.43 28.99Z" fill="white"/>
<path d="M37.0671 23.8742V16.0868H34.3276C34.4878 15.2309 34.5905 14.3652 34.635 13.4955L33.0225 14.6932C33.9134 13.6647 33.0225 8.86938 33.0225 8.86938C33.0225 8.86938 31.8465 11.1758 24.5146 10.588C17.1826 10.0003 16.1536 12.9122 16.1536 12.9122C15.2628 12.0217 16.1536 10.5658 16.1536 10.5658C15.888 10.6885 15.6491 10.8623 15.4507 11.0773C15.2523 11.2923 15.0982 11.5443 14.9973 11.8188C14.8963 12.0934 14.8505 12.3852 14.8624 12.6774C14.8744 12.9697 14.9438 13.2568 15.0668 13.5222L15.1291 13.6424H12.7549L14.3942 14.6932C13.8776 15.0358 13.4806 15.5307 13.2583 16.1091H8.84842V23.8742L7.24483 25.477L8.84842 27.0799L9.29386 34.8673H13.4587L13.0133 26.6258C13.0177 26.5985 13.0165 26.5706 13.0099 26.5438C13.0032 26.517 12.9912 26.4918 12.9745 26.4698C12.9579 26.4478 12.937 26.4293 12.913 26.4156C12.889 26.4018 12.8626 26.393 12.8351 26.3898C12.7809 26.3821 12.7257 26.396 12.6816 26.4284C12.6375 26.4609 12.6078 26.5094 12.599 26.5634C12.5946 26.584 12.5946 26.6052 12.599 26.6258V32.9483H10.7326V26.5634L9.63685 25.477L10.7282 24.3906V18.0058H12.8039C12.7549 18.4881 12.746 18.9736 12.7772 19.4573H14.2427C14.3242 18.568 14.7493 17.7455 15.4276 17.1643C17.922 14.0832 28.4834 15.882 28.4834 15.882L29.6549 14.1544L29.2095 15.882C31.6951 16.4742 31.9089 19.4039 31.9089 19.4039H33.0225C33.3573 18.9837 33.6206 18.5114 33.802 18.0058H35.1829V24.3906L36.2742 25.477L35.1829 26.5634V32.9483H32.9022L33.3476 34.8673H37.5125L37.0671 27.0799L38.6707 25.477L37.0671 23.8742Z" fill="white"/>
<path d="M58.483 30.7623V14.7623H62.3501V27.6216H69.0064V30.7623H58.483ZM73.6412 30.7623L68.9849 14.7623H73.2584L75.6724 25.2466H75.8052L78.563 14.7623H82.0474L84.8052 25.2701H84.938L87.3599 14.7623H91.6255L86.9771 30.7623H83.2505L80.3677 21.0591H80.2427L77.3599 30.7623H73.6412ZM101.678 19.5591C101.626 18.9862 101.394 18.5409 100.983 18.2232C100.577 17.9003 99.996 17.7388 99.2408 17.7388C98.7408 17.7388 98.3241 17.8039 97.9908 17.9341C97.6574 18.0644 97.4074 18.244 97.2408 18.4732C97.0741 18.6972 96.9882 18.955 96.983 19.2466C96.9725 19.4862 97.0194 19.6972 97.1236 19.8795C97.233 20.0617 97.3892 20.2232 97.5923 20.3638C97.8007 20.4992 98.0507 20.619 98.3423 20.7232C98.634 20.8274 98.9621 20.9185 99.3267 20.9966L100.702 21.3091C101.493 21.481 102.191 21.7102 102.795 21.9966C103.405 22.2831 103.915 22.6242 104.327 23.0201C104.743 23.4159 105.058 23.8716 105.272 24.3873C105.486 24.9029 105.595 25.481 105.6 26.1216C105.595 27.1321 105.34 27.9992 104.835 28.7232C104.329 29.4472 103.603 30.0019 102.655 30.3873C101.712 30.7727 100.574 30.9654 99.2408 30.9654C97.9022 30.9654 96.7356 30.7649 95.7408 30.3638C94.746 29.9628 93.9725 29.3534 93.4205 28.5357C92.8684 27.718 92.5845 26.6841 92.5689 25.4341H96.272C96.3033 25.9498 96.4413 26.3795 96.6861 26.7232C96.9309 27.067 97.2668 27.3274 97.6939 27.5045C98.1262 27.6815 98.6262 27.7701 99.1939 27.7701C99.7147 27.7701 100.157 27.6998 100.522 27.5591C100.892 27.4185 101.176 27.2232 101.374 26.9732C101.572 26.7232 101.673 26.4367 101.678 26.1138C101.673 25.8117 101.579 25.5539 101.397 25.3404C101.215 25.1216 100.933 24.9341 100.553 24.7779C100.178 24.6164 99.6991 24.468 99.1158 24.3326L97.4439 23.942C96.0585 23.6242 94.9673 23.1112 94.1705 22.4029C93.3736 21.6894 92.9778 20.7258 92.983 19.5123C92.9778 18.5227 93.2434 17.6555 93.7798 16.9107C94.3163 16.1659 95.0585 15.5852 96.0064 15.1685C96.9543 14.7519 98.035 14.5435 99.2486 14.5435C100.488 14.5435 101.564 14.7545 102.475 15.1763C103.392 15.593 104.103 16.1789 104.608 16.9341C105.113 17.6894 105.371 18.5644 105.381 19.5591H101.678ZM108.28 30.7623V14.7623H113.874C114.988 14.7623 115.907 14.955 116.631 15.3404C117.355 15.7206 117.894 16.2336 118.249 16.8795C118.603 17.5201 118.78 18.231 118.78 19.0123C118.78 19.6998 118.657 20.2675 118.413 20.7154C118.173 21.1633 117.855 21.5175 117.46 21.7779C117.069 22.0383 116.644 22.231 116.186 22.356V22.5123C116.676 22.5435 117.168 22.7154 117.663 23.0279C118.157 23.3404 118.572 23.7883 118.905 24.3716C119.238 24.955 119.405 25.6685 119.405 26.5123C119.405 27.3144 119.223 28.0357 118.858 28.6763C118.493 29.317 117.918 29.8248 117.131 30.1998C116.345 30.5748 115.322 30.7623 114.061 30.7623H108.28ZM110.217 29.0435H114.061C115.327 29.0435 116.225 28.7987 116.756 28.3091C117.293 27.8144 117.561 27.2154 117.561 26.5123C117.561 25.9706 117.423 25.4706 117.147 25.0123C116.871 24.5487 116.478 24.1789 115.967 23.9029C115.457 23.6216 114.853 23.481 114.155 23.481H110.217V29.0435ZM110.217 21.7935H113.811C114.394 21.7935 114.92 21.6789 115.389 21.4498C115.863 21.2206 116.238 20.8977 116.514 20.481C116.795 20.0644 116.936 19.5748 116.936 19.0123C116.936 18.3091 116.691 17.7128 116.202 17.2232C115.712 16.7284 114.936 16.481 113.874 16.481H110.217V21.7935ZM124.182 14.7623V30.7623H122.338V14.7623H124.182ZM132.434 31.0123C131.351 31.0123 130.4 30.7545 129.583 30.2388C128.77 29.7232 128.135 29.0019 127.676 28.0748C127.223 27.1477 126.997 26.0644 126.997 24.8248C126.997 23.5748 127.223 22.4836 127.676 21.5513C128.135 20.619 128.77 19.8951 129.583 19.3795C130.4 18.8638 131.351 18.606 132.434 18.606C133.517 18.606 134.465 18.8638 135.278 19.3795C136.096 19.8951 136.731 20.619 137.184 21.5513C137.642 22.4836 137.872 23.5748 137.872 24.8248C137.872 26.0644 137.642 27.1477 137.184 28.0748C136.731 29.0019 136.096 29.7232 135.278 30.2388C134.465 30.7545 133.517 31.0123 132.434 31.0123ZM132.434 29.356C133.257 29.356 133.934 29.1451 134.465 28.7232C134.997 28.3013 135.39 27.7466 135.645 27.0591C135.9 26.3716 136.028 25.6269 136.028 24.8248C136.028 24.0227 135.9 23.2753 135.645 22.5826C135.39 21.8899 134.997 21.33 134.465 20.9029C133.934 20.4758 133.257 20.2623 132.434 20.2623C131.611 20.2623 130.934 20.4758 130.403 20.9029C129.872 21.33 129.478 21.8899 129.223 22.5826C128.968 23.2753 128.84 24.0227 128.84 24.8248C128.84 25.6269 128.968 26.3716 129.223 27.0591C129.478 27.7466 129.872 28.3013 130.403 28.7232C130.934 29.1451 131.611 29.356 132.434 29.356ZM145.53 35.5123C144.639 35.5123 143.874 35.3977 143.233 35.1685C142.592 34.9446 142.058 34.6477 141.631 34.2779C141.21 33.9133 140.874 33.5227 140.624 33.106L142.092 32.0748C142.259 32.2935 142.47 32.5435 142.725 32.8248C142.98 33.1112 143.329 33.3586 143.772 33.567C144.22 33.7805 144.806 33.8873 145.53 33.8873C146.499 33.8873 147.298 33.6529 147.928 33.1841C148.558 32.7154 148.874 31.981 148.874 30.981V28.5435H148.717C148.582 28.7623 148.389 29.0331 148.139 29.356C147.894 29.6737 147.54 29.9576 147.077 30.2076C146.618 30.4524 145.999 30.5748 145.217 30.5748C144.249 30.5748 143.379 30.3456 142.608 29.8873C141.842 29.4289 141.236 28.7623 140.788 27.8873C140.345 27.0123 140.124 25.9498 140.124 24.6998C140.124 23.4706 140.34 22.4003 140.772 21.4888C141.204 20.5722 141.806 19.8638 142.577 19.3638C143.348 18.8586 144.238 18.606 145.249 18.606C146.03 18.606 146.65 18.7362 147.108 18.9966C147.572 19.2519 147.926 19.5435 148.17 19.8716C148.42 20.1946 148.613 20.4602 148.749 20.6685H148.936V18.7623H150.717V31.106C150.717 32.1373 150.483 32.9758 150.014 33.6216C149.551 34.2727 148.926 34.7492 148.139 35.0513C147.358 35.3586 146.488 35.5123 145.53 35.5123ZM145.467 28.9185C146.207 28.9185 146.832 28.7492 147.342 28.4107C147.853 28.0722 148.241 27.5852 148.506 26.9498C148.772 26.3144 148.905 25.5539 148.905 24.6685C148.905 23.8039 148.775 23.0409 148.514 22.3795C148.254 21.718 147.868 21.1998 147.358 20.8248C146.848 20.4498 146.217 20.2623 145.467 20.2623C144.686 20.2623 144.035 20.4602 143.514 20.856C142.999 21.2519 142.611 21.7831 142.35 22.4498C142.095 23.1164 141.967 23.856 141.967 24.6685C141.967 25.5019 142.098 26.2388 142.358 26.8795C142.624 27.5149 143.014 28.0149 143.53 28.3795C144.051 28.7388 144.697 28.9185 145.467 28.9185Z" fill="black"/>
</svg>
