<svg width="27" height="26" viewBox="0 0 27 26" fill="none" xmlns="http://www.w3.org/2000/svg">
<path d="M19.2683 18.1478L14.7583 22.6578C14.561 22.8552 14.3268 23.0119 14.069 23.1187C13.8112 23.2256 13.5349 23.2806 13.2558 23.2806C12.9767 23.2806 12.7004 23.2256 12.4426 23.1187C12.1848 23.0119 11.9506 22.8552 11.7534 22.6578L7.24226 18.1478C6.05307 16.9585 5.24324 15.4434 4.91516 13.7939C4.58709 12.1444 4.75551 10.4346 5.39914 8.88083C6.04276 7.32705 7.13267 5.99901 8.53105 5.06466C9.92943 4.1303 11.5735 3.63159 13.2553 3.63159C14.9371 3.63159 16.5811 4.1303 17.9795 5.06466C19.3779 5.99901 20.4678 7.32705 21.1114 8.88083C21.7551 10.4346 21.9235 12.1444 21.5954 13.7939C21.2673 15.4434 20.4575 16.9585 19.2683 18.1478V18.1478Z" stroke="#4D4D4D" stroke-width="1.5" stroke-linecap="round" stroke-linejoin="round"/>
<path d="M16.4441 12.1347C16.4441 12.9805 16.1081 13.7915 15.5101 14.3896C14.9121 14.9876 14.101 15.3235 13.2553 15.3235C12.4095 15.3235 11.5985 14.9876 11.0004 14.3896C10.4024 13.7915 10.0665 12.9805 10.0665 12.1347C10.0665 11.289 10.4024 10.4779 11.0004 9.8799C11.5985 9.28188 12.4095 8.94592 13.2553 8.94592C14.101 8.94592 14.9121 9.28188 15.5101 9.8799C16.1081 10.4779 16.4441 11.289 16.4441 12.1347V12.1347Z" stroke="#4D4D4D" stroke-width="1.5" stroke-linecap="round" stroke-linejoin="round"/>
</svg>
