<svg width="25" height="25" viewBox="0 0 25 25" fill="none" xmlns="http://www.w3.org/2000/svg">
<path d="M10.5209 14.6978L12.5209 12.6978M12.5209 12.6978L14.5209 10.6978M12.5209 12.6978L10.5209 10.6978M12.5209 12.6978L14.5209 14.6978M21.5209 12.6978C21.5209 13.8797 21.2881 15.05 20.8358 16.1419C20.3835 17.2338 19.7206 18.226 18.8848 19.0617C18.0491 19.8974 17.057 20.5604 15.965 21.0127C14.8731 21.465 13.7028 21.6978 12.5209 21.6978C11.339 21.6978 10.1687 21.465 9.07672 21.0127C7.98479 20.5604 6.99264 19.8974 6.15691 19.0617C5.32119 18.226 4.65825 17.2338 4.20596 16.1419C3.75367 15.05 3.52087 13.8797 3.52087 12.6978C3.52087 10.3108 4.46909 8.02162 6.15691 6.33379C7.84474 4.64597 10.1339 3.69775 12.5209 3.69775C14.9078 3.69775 17.197 4.64597 18.8848 6.33379C20.5727 8.02162 21.5209 10.3108 21.5209 12.6978Z" stroke="#ED3675" stroke-width="2" stroke-linecap="round" stroke-linejoin="round"/>
</svg>
