<svg width="21" height="21" viewBox="0 0 21 21" fill="none" xmlns="http://www.w3.org/2000/svg">
<path d="M19.5209 12.4528C16.6614 13.609 13.6053 14.2015 10.5209 14.1978C7.33787 14.1978 4.30087 13.5778 1.52087 12.4528M14.5209 5.19775V3.19775C14.5209 2.66732 14.3102 2.15861 13.9351 1.78354C13.56 1.40847 13.0513 1.19775 12.5209 1.19775H8.52087C7.99044 1.19775 7.48173 1.40847 7.10666 1.78354C6.73159 2.15861 6.52087 2.66732 6.52087 3.19775V5.19775M10.5209 11.1978H10.5309M3.52087 19.1978H17.5209C18.0513 19.1978 18.56 18.987 18.9351 18.612C19.3102 18.2369 19.5209 17.7282 19.5209 17.1978V7.19775C19.5209 6.66732 19.3102 6.15861 18.9351 5.78354C18.56 5.40847 18.0513 5.19775 17.5209 5.19775H3.52087C2.99044 5.19775 2.48173 5.40847 2.10666 5.78354C1.73159 6.15861 1.52087 6.66732 1.52087 7.19775V17.1978C1.52087 17.7282 1.73159 18.2369 2.10666 18.612C2.48173 18.987 2.99044 19.1978 3.52087 19.1978Z" stroke="#4D4D4D" stroke-width="2" stroke-linecap="round" stroke-linejoin="round"/>
</svg>
