<svg width="21" height="21" viewBox="0 0 21 21" fill="none" xmlns="http://www.w3.org/2000/svg">
<path d="M3.64187 16.0018C5.74029 14.8157 8.11045 14.1941 10.5209 14.1978C13.0209 14.1978 15.3679 14.8528 17.3999 16.0018M13.5209 8.19775C13.5209 8.9934 13.2048 9.75647 12.6422 10.3191C12.0796 10.8817 11.3165 11.1978 10.5209 11.1978C9.72522 11.1978 8.96216 10.8817 8.39955 10.3191C7.83694 9.75647 7.52087 8.9934 7.52087 8.19775C7.52087 7.4021 7.83694 6.63904 8.39955 6.07643C8.96216 5.51382 9.72522 5.19775 10.5209 5.19775C11.3165 5.19775 12.0796 5.51382 12.6422 6.07643C13.2048 6.63904 13.5209 7.4021 13.5209 8.19775V8.19775ZM19.5209 10.1978C19.5209 11.3797 19.2881 12.55 18.8358 13.6419C18.3835 14.7338 17.7206 15.726 16.8848 16.5617C16.0491 17.3974 15.057 18.0604 13.965 18.5127C12.8731 18.965 11.7028 19.1978 10.5209 19.1978C9.33898 19.1978 8.16865 18.965 7.07672 18.5127C5.98479 18.0604 4.99264 17.3974 4.15691 16.5617C3.32119 15.726 2.65825 14.7338 2.20596 13.6419C1.75367 12.55 1.52087 11.3797 1.52087 10.1978C1.52087 7.81081 2.46909 5.52162 4.15691 3.83379C5.84474 2.14597 8.13393 1.19775 10.5209 1.19775C12.9078 1.19775 15.197 2.14597 16.8848 3.83379C18.5727 5.52162 19.5209 7.81081 19.5209 10.1978Z" stroke="#4D4D4D" stroke-width="2" stroke-linecap="round" stroke-linejoin="round"/>
</svg>
