<svg width="21" height="20" viewBox="0 0 21 20" fill="none" xmlns="http://www.w3.org/2000/svg">
<path d="M6.52087 5.21863V1.21863M14.5209 5.21863V1.21863M5.52087 9.21863H15.5209M3.52087 19.2186H17.5209C18.0513 19.2186 18.56 19.0079 18.9351 18.6328C19.3102 18.2578 19.5209 17.7491 19.5209 17.2186V5.21863C19.5209 4.68819 19.3102 4.17949 18.9351 3.80441C18.56 3.42934 18.0513 3.21863 17.5209 3.21863H3.52087C2.99044 3.21863 2.48173 3.42934 2.10666 3.80441C1.73159 4.17949 1.52087 4.68819 1.52087 5.21863V17.2186C1.52087 17.7491 1.73159 18.2578 2.10666 18.6328C2.48173 19.0079 2.99044 19.2186 3.52087 19.2186Z" stroke="#4D4D4D" stroke-width="1.5" stroke-linecap="round" stroke-linejoin="round"/>
</svg>
